<svg xmlns="http://www.w3.org/2000/svg" width="1572" height="1660" version="1.0" viewBox="0 0 1179 1245"><path d="M589.1 41.1c-7.4 1.1-12.2 3.7-19.2 10.4-6.7 6.4-10.8 12.6-12.9 19.4-1 3.1-3 8.7-4.5 12.6-2.8 7-3.7 13.6-5.1 35-.8 12.3-.4 13.2 10.3 23.6 8.8 8.6 11.6 9.9 21.6 9.9 18.5 0 34.2-5.8 44.7-16.5 3.4-3.6 6.7-6.5 7.2-6.5 2 0 2 3.8 0 13.9-2.3 11.7-6.1 24-9.3 30.4-6 11.8-21.5 33.1-24.9 34.2-1 .3-4.7-1.2-9.1-3.8-34.4-20.5-45.3-30.7-55.4-51.8-4-8.3-4.1-9.6-1.9-19.9 2.9-13.8-.1-22.7-11.2-33.3-3.6-3.4-9.6-9.6-13.2-13.7-3.6-4.1-9.3-9.6-12.6-12.1-10.9-8.2-26.3-17.9-28.5-17.9-1.1 0-2.1.1-2.2.2-.8 2.9-.8 20.2 0 25.8.7 4.1 1.6 10.9 2.2 15 1 7.5 4.7 21.3 7.6 28.2 1.5 3.7 1.3 6.8-.6 6.8-.6 0-3.5-3.2-6.6-7-3.1-3.9-6-7-6.5-7s-1.7 1.4-2.5 3.1c-2.6 4.9-6 5.8-16.8 4.3-18.3-2.5-29.4-3.4-41.7-3.4-13.8 0-38.7 1.5-49.5 3.1-20.8 2.9-27.4 4.1-31 5.3-2.2.7-5.6 1.9-7.5 2.5-1.9.7-10.9 3.7-20 6.7-27.2 9.2-51.3 20.6-60.9 28.8-3.3 2.8-12.7 10.7-20.8 17.6-8.1 6.8-20.2 17.8-26.8 24.5-6.6 6.6-16.2 15.2-21.2 19-5.1 3.9-9.5 7.8-9.9 8.8-.8 2.6 1.2 4.5 5.3 4.9 2 .2 4.1 1 4.6 2 1.2 1.8-.5 4.9-13 24-12.8 19.6-27.7 54.4-31.8 74.6-.9 4.1-1.8 7.9-2.1 8.3-1 1.6-4.5 28.1-3.9 29.9.9 2.7-1.2 7-3.3 7-2.9 0-22.6 6.7-29.9 10.2-7.3 3.4-19.2 12.5-24.3 18.6-9 10.5-20 31.8-24.8 47.7-4.7 15.8-5.4 40.7-1.6 60.9 1.9 10.3 1.2 15.8-3.7 26.2-2.9 6.4-4.3 7.4-10.5 7.4-3.5 0-5.2 1.2-8.3 5.7C1 567.9.9 568.9.6 597.9l-.3 30 3.1-.7c1.7-.3 4.2-.6 5.6-.7 2.3 0 2.5.4 2.4 4 0 2.2-1 7.8-2.3 12.5-3.7 14.4-4 15.4-4.6 18.9-.3 1.9-.8 3.7-1 4.1-.2.4 0 7.4.5 15.6.6 11 1.4 16.5 3 20.9 7.6 21 14.7 32.3 32.2 51 5.3 5.5 5.9 8.4 2.7 11.6-1.8 1.8-2.9 2-6.8 1.5-5.5-.7-19.9.8-21.3 2.2-2 2 6.8 21.6 14.8 33.1 2.6 3.6 7.5 9.2 11 12.4 5.8 5.4 6.6 6.5 8.9 14 2.8 8.8 5.8 16.6 10 26.2 2.2 4.8 2.7 7.5 2.7 13.5 0 4.1-.5 8.8-1.1 10.3-1.4 3.6-1.4 9.3-.1 11.8.7 1.2 2.1 1.9 4 1.9 2.3 0 4-1.3 8.1-6.1 4.6-5.2 5.7-5.9 7.9-5.4 3 .8 18 10.1 19.7 12.3 1.6 1.9 0 4.2-2.9 4.2-2.4 0-21.2 4.5-28 6.7-6.4 2-6.8 3.9-2.4 11.2 2 3.2 3.6 6.2 3.6 6.6 0 .5 1.7 3.1 3.8 5.9 2.1 2.8 6.4 9.1 9.6 13.9 7.2 10.7 16.3 20.3 20.2 21.3 2 .5 5-.1 10.4-2.1 11.2-4.1 11.7-4.2 15.1-.9 5.5 5.2 9.5 16.7 11.8 33.7 1.2 8.6 3.6 14.1 11.6 26.2 5.8 8.8 7.8 13.1 8.9 18.9 1.2 6.6 5.7 13.7 13.2 21.3 8.3 8.4 11.8 9.8 14.7 6.2 3.1-3.9 6.3-10.9 8.7-19.4 3.1-10.7 3.5-11.3 7.4-12 4-.8 5.7 0 15.1 7.3 3.8 2.9 9.1 7 11.8 8.9 2.6 1.9 4.7 3.8 4.7 4.2 0 1.4-2.4 3.1-4.3 3.1-1.7 0-6.5 1.8-10.7 3.9-.8.5-1.5 1.9-1.5 3.1 0 2.9 2 3.5 15.9 5.1 10.4 1.1 22.1 4.1 25.1 6.3 1.6 1.2 1.7 2 .5 9.5-1.5 9.8-.7 19.9 2 25.6 4.1 8.5 16.5 18.6 29.8 24.3 4.6 1.9 8 2.5 17.3 2.9 10.5.5 12.5.3 21-2.1 9.8-2.8 20.4-6.2 29.9-9.4 7.1-2.5 24-4.6 25.3-3.3.7.7 0 2.2-2 4.5-9.2 10.3-12.4 18.2-12.4 29.6 0 11.5 3.2 17.8 12.5 24.9 12.3 9.2 27.7 14.6 46.1 16.1 11.6.9 14.3 2 13.8 5.9-.7 5.3.9 5.6 8.3 2.1 3.8-1.8 9.6-3.9 12.9-4.7 14.7-3.5 16.1-3 15.1 5.7-.7 5.8-.1 7.7 1.8 6.1 2.4-2 7.3-1.4 13.6 1.6 18.5 8.7 47.7 7.5 70.6-2.8 8-3.7 10.9-3.5 20.4.8 8.2 3.8 11.8 4.9 20.5 6.2 3.9.6 8.6 1.5 10.5 2.1 1.9.5 7 1 11.3 1 4.3 0 10.8.8 14.3 1.7 7.9 2.1 9.8 1.3 10.2-4.4.4-5.3-4.8-18.1-12.3-30.3-4.1-6.7-8.8-12.4-15.7-19.2-5.4-5.3-9.8-10.2-9.8-11 0-.7 1.1-4.5 2.4-8.3 1.3-3.9 3.2-9.9 4.2-13.5.9-3.6 2.5-7.4 3.5-8.4 1.8-1.9 1.9-1.9 6.1-.1 2.4 1 5 2.5 5.9 3.2.8.7 2 1.3 2.6 1.3.6 0 1.6.7 2.3 1.5.9 1.1.8 2-.8 4.2-3.6 5.2-6.4 14.4-5.7 18.8 1.2 8.1 8.1 14.7 12 11.5 1.2-1 1.3-3 .9-9.9-.5-7.5-.3-9 1.5-11.9 1.1-1.7 2.9-3.2 3.8-3.2 3.8.1 15.6 21.9 19.7 36.3 2.3 8.2 2.6 11.1 2.5 22.4-.1 9.2.3 13.9 1.2 15.9 2.1 4.3 4.5 4.2 6.7-.3 2.2-4.3 9.7-26.1 10.7-31.1.4-1.8 1.3-3.6 2.1-3.9.8-.3 7.2 2 14.2 5.1 12.1 5.3 14.9 6.1 32.7 8.8 20.4 3.1 49.8-3.9 63.8-15.1 8.3-6.6 18.4-18.8 28.1-34 6.4-10 7-10.1 23-6.8 10.4 2.1 15.9 2.7 26.2 2.7 8.8 0 13.4-.4 14.2-1.2.7-.7 1.2-2.8 1.2-4.8 0-3.5-.2-3.7-8.7-8-7-3.4-10.4-4.5-16.3-5.1-4.1-.4-10.7-1.4-14.5-2.4l-7.1-1.6.2-10.6c.1-7.8.5-10.7 1.5-11.4.8-.5 5.7-.6 10.9-.3s12.6 0 16.5-.6c12.2-1.9 15.2-3.4 46-22.7 3.3-2 10.4-6.8 15.7-10.5 5.4-3.7 10.4-6.8 11.2-6.8 1.5 0 2.6 2.5 7.1 16.7 2.1 6.4 3.1 8.2 4.8 8.7 8.5 2.1 22.1-10.5 30-27.6 1.9-4.4 3.7-6.5 7.4-9 8.8-6 16.1-14.1 19.7-22.3 6.4-13.9 7.9-21.1 8.4-40.5.5-22.9-.3-21.9 15.5-19.4 5.2.8 13.8-2.5 21-8.2 3.2-2.4 9.2-8.9 13.5-14.3 20.2-25.7 23.7-30.3 23.7-31.9 0-2-7.3-4.6-17.8-6.4-12.6-2.2-31.2 2.3-53.7 13.1-14.4 6.9-20.4 19.8-13.7 29.5 2.6 3.7 2.6 8.2.1 10.1-2.7 2.1-4.4 1.8-8.9-1.2-5.8-3.9-15.1-8.3-19.9-9.3-7.4-1.5-16.1-4.2-17.3-5.2-.9-.7-1.3-4.1-1.3-10 0-8.6.1-9.1 2.8-11.6 3-2.8 7.3-4.4 22.2-8.2 4.7-1.2 13.9-3.9 20.5-6 16.8-5.3 21.7-6.7 32-8.5 12-2.2 22.1-5.2 27.1-8.1 5.5-3.2 20-18.3 24.8-25.9 2.1-3.3 4.7-7.2 5.7-8.7 1.1-1.5 1.9-3.1 1.9-3.6 0-1.6 6.5-9.8 14.5-18.2 7.7-8.1 18.9-21.9 22.8-28.1l1.8-2.8-8.7-4.3c-7.8-3.9-8.9-4.8-10.1-8.2-2-6-.9-8.1 6.6-12.6 8.3-5.1 9.5-6.1 16-14 5.6-6.8 15.4-25.9 16.7-32.5.3-2 1.8-6.7 3.1-10.3 2.2-5.9 2.5-8.7 2.9-24.1.3-13.4.1-18.4-1-21.5-.8-2.3-2.6-8.4-4.1-13.6-1.5-5.2-4.5-13.2-6.7-17.8-2.2-4.5-3.8-8.8-3.5-9.6.4-.9 2.6-1.7 5.4-2.1 11-1.5 10.3-.9 10.3-8.1 0-3.5-.4-6.4-.9-6.4-1.2 0-5.5-10.1-8.6-20.3-1.4-4.9-4-11.1-5.7-13.9-3.2-5.2-6.7-7.4-15.8-9.8-3.6-1-4.4-1.7-6.1-5.8-3-7-3.4-15.8-1.3-30.7 1-7.5 1.8-19.4 1.8-28 .1-15.7-1.3-24.5-6.6-40.2-2.9-8.8-2.4-9.6 6.5-10.8 4.2-.6 4.7-.9 4.7-3.2 0-1.4-.7-5.1-1.5-8.3-.8-3.1-1.9-10.2-2.5-15.6-1.2-11.3-3.7-23.7-5.6-27.5-2.8-5.5-16.4-14.9-21.7-14.9-.7 0-3.9-1.3-7.2-2.8-4.5-2.2-7-4.2-10.1-8.3-12.7-16.9-14.6-20.1-20.5-33.9-9.1-21.4-21.4-42.4-43.7-74.5-7.6-10.9-34.9-40.2-47.2-50.5-7.8-6.6-29.6-23-30.5-23-.3 0-4.3-2.2-8.8-4.8-7.6-4.4-21.7-11.3-32.7-15.7-2.5-1-5.5-2.7-6.7-3.8-2-1.8-2.1-2.1-.6-6.2 3.4-10.1.1-11.5-14-6.1-16.8 6.5-32.5 10.6-41.4 10.8-6.3.2-7.5-1-9.3-9.2-1.7-7.4-7.8-20.2-13.3-27.5-6.9-9.3-7-9.7-5.2-15.8 1.6-5.4 1.2-8.7-.9-8.7-.6 0-4.3.7-8.2 1.6-7 1.7-7.2 1.7-11.5-.4-14.6-7-28.9-9-54.4-7.7-25.4 1.3-26.9 1.3-27.3-.8-.2-1 1.7-4.8 4.1-8.5 13.5-20 19.7-33.3 16.7-35.3-2.4-1.4-18.3-1.1-23 .6-2.3.8-5.5 1.5-7 1.5-3.3 0-14.8 3.4-21.4 6.3-6.7 3-14.8 11.1-16.4 16.3-.7 2.3-1.5 7-1.8 10.5-.3 3.5-1.7 10-3 14.4s-2.9 10.5-3.5 13.5c-1.3 6.1-5.1 14-10.5 21.5-3.9 5.5-5.8 7-7.5 5.9-1.1-.7-.9-3.6 1.1-12.4.5-2.5 1.2-10.6 1.6-18 1.1-21.8-1.9-37.5-9.3-49.8-12.1-19.8-31.5-29.3-53.2-26.1zm20.7 14.8c3.8 2 8.1 6.2 11.8 11.6 7.1 10.3 11.6 31.7 8.4 40.1-1 2.6-1.3 2.7-6.8 2.2-3.3-.3-9.5-2.1-14.3-4.1-13.6-5.7-20.2-7-27.2-5.8-4 .7-6.6.7-7.8 0-2.3-1.2-4.9-6-4.9-9.2 0-3.5 3.4-12.8 6.3-17.3 5.8-9 20.4-19.1 28-19.3 1.5-.1 4.4.8 6.5 1.8zm79.2 59.9c0 .9-2.5 3.3-4.9 4.7-1 .6-1.2.4-.6-.6 2.2-3.8 5.5-6.3 5.5-4.1zm83.4 6.8c2.6 1 1.8 3.3-2.8 8.5-7 7.8-8.9 12.7-8.4 21.2.4 5.5 1.4 8.9 4.1 14.4 3.1 6.6 3.4 7.7 2.6 11.5-1.2 5.4-10.1 23-14.4 28.3-1.7 2.2-3.7 5-4.4 6.2-1.4 2.6-6.7 5.7-8.6 4.9-1-.3-.7-1.6 1.2-5.3 2.4-4.6 2.5-5.4 2-17.3-1-22.9-9.1-47-15.1-44.7-.8.3-2.7 3-4.1 6-1.4 3-4.8 8.6-7.6 12.3-16 21.7-16.8 26.5-8.4 50.4 2.2 6.3 2.5 8 1.6 10.6-.6 1.7-1.1 3.9-1.1 5 0 1-1.2 5.7-2.7 10.3-3.1 9.4-7.3 14.6-16.7 20.6-10.4 6.7-17.7 7-27.1 1.4-12.5-7.6-46.5-34.2-48.6-38-.9-1.7-.6-2.8 1.6-6 4.7-6.6 8.5-8.9 15.2-8.9 8.3 0 9.6 1.2 10.4 9.9.4 5.3 1.3 8 3.2 10.9 4.1 5.8 7.6 7.3 19.1 8.3 9.9.8 18 2.5 26.3 5.6 5.6 2 7.3 1.3 7.3-3.2 0-2.5.4-3.4 1.2-2.9.8.5.9.2.4-1.2-.4-1-1.1-4.2-1.6-7.1-3.9-23.5-11-32.9-28.2-37.5-5.3-1.4-8-.8-17.5 3.9-5.6 2.7-10.1 2.7-13.9-.1-1.5-1.1-1.7-1.9-.9-3.9.6-1.4 11-12.2 23.2-24.1 22-21.3 24.1-22.9 41.8-32.9 14.9-8.4 29.6-13.7 41.9-15.2 3.3-.4 6.9-1.1 8-1.5 2.4-1 18.7-1.3 21-.4zM426 145.9c12.5 2.9 22.9 5.7 23.6 6.3.3.4 1.4 7.5 2.5 16 1 8.4 2.3 17.3 2.8 19.8 6.6 32.7 12.2 43.1 25.1 47.1 10.8 3.2 10.7 3.1 18.2 18.9 3.8 8 7.8 16.1 8.9 18 9 15.9 10.5 21.2 6.3 21.8-1.5.2-4.6-2-10.5-7.5-14.3-13.2-35.4-36.1-40.8-44.2-3.2-4.7-12.9-16.6-21.7-26.7-9.6-10.9-9.9-11.4-8.5-18.3.6-3.1 1.5-9.8 2.1-15 1.2-10.9.7-12.3-4.3-11.1-5.1 1.2-6.9 2.1-12.1 5.7-8.4 6-9.6 5.7-21.1-3.8-5.5-4.6-13.5-11.8-17.9-16-6.8-6.7-7.7-7.9-6.7-9.7 1.7-3.2 8.9-4.1 28.1-3.7 12.7.3 19.8.9 26 2.4zm393.4 9c2.8 2.9 7.6 14.4 7.6 18.1 0 2.2-5.5 6.2-11 8.1-1.9.7-5.1 2.3-7.1 3.5-2 1.3-6.5 3.5-10 4.9-3.5 1.4-7.7 3.2-9.4 4-8 3.6-13.9 5.5-14.7 4.7-1-1 2.4-12.7 4.7-15.9.9-1.3 4.2-3.5 7.3-5 5.6-2.7 18.6-14.7 24-22.1 2.9-4 5-4 8.6-.3zm-498.7 6.6c-1.1 6.8-18.8 26.7-28.1 31.6-8.6 4.6-12.9 8.1-17 14.3-6.3 9.6-8.1 15.7-8 27.6.2 15 4.5 30.8 13.5 49.6 4.4 9.2 1.5 11.5-15.6 12.5-6.6.4-14.8 1-18.2 1.4l-6.1.8-2.6-4.1c-2.8-4.5-10.3-20.9-14-30.7-5.3-13.9-9.1-36.6-7.5-44.9 2.1-11.3 10.4-22.4 25.3-34 23.3-18.1 41.6-25.6 67.1-27.5 11.4-.8 11.8-.6 11.2 3.4zm38.8 9.3c7.6 3.7 19.5 13.6 19.5 16 0 .7-2.4 3.6-5.4 6.3-5.9 5.4-11.2 14.1-14.1 22.9-3.3 10.2-3.7 10.9-6.3 11.8-3.6 1.2-6.5 0-9.2-3.8-2.9-4.1-3.5-10.4-2.1-21.1 1.3-9.6 6.6-29.4 8.7-32.7 1.6-2.5 3-2.4 8.9.6zm151.5 8.7c1.4 1.3 5.4 4 9 6.1 7 4 22 13.8 31 20.2 6.5 4.5 7.7 7.8 3.3 8.8-12.4 2.8-16.3 4.6-16.3 7.5 0 2.9 3.8 3.9 15.6 3.9 12 0 24.2 1.7 26.3 3.6 1.2 1.1.7 2.3-3.2 8.1-2.5 3.7-6.4 9-8.5 11.8-2.1 2.7-7.8 10.6-12.7 17.5-9.9 14-15.1 20-17.5 20-5.6 0-35-45.7-35-54.4 0-1.6 1.1-4.3 2.3-6 3.7-4.8 4.8-7.3 5.7-13.2 1.2-7.3-.8-18.2-4.9-26.3-4.9-9.7-2.1-14 4.9-7.6zm358 14.9c4.3 1.5 7 6.3 7 12.6 0 4.5-2.1 9-4.2 9-.7 0-3 .9-5.3 2-10.9 5.3-11.2 21.6-.8 47 2.7 6.7 7.1 12 10 12 2.8 0 14-10.8 20.1-19.3 7.3-10.2 9.2-15 9.2-23.2 0-5.9-.4-7-3.7-11.7-2-2.9-4.8-6.7-6.2-8.3-3.8-4.7-7.1-12.6-7.1-17.3V193h4.9c5.5 0 18 4.4 29.6 10.4 3.9 2 7.4 3.6 7.8 3.6 1.7 0 14.8 8.3 19.2 12.2 5.6 4.9 7.1 7.8 10.3 19.3 1.9 6.9 2.6 12.3 2.9 23 .5 13.4.4 14.6-2.6 25.7-4.9 18-15.7 41.5-21.5 46.5-4.9 4.3-6.6 4.7-12.7 2.3-3.3-1.3-8.6-2.3-13.8-2.6-13.6-.8-14.6-1.1-19.4-5.8-5.3-5.1-11.3-7.1-21.2-7.1-8.9.1-15.9 2.4-24.4 8.3-7.5 5.1-23.2 20-26.3 25-2.6 4.2-1.8 5.1 7.2 7.8 5.5 1.6 9.7 1.9 27 1.9 20.4 0 20.5 0 26.2-2.8 3.7-1.8 7.4-4.7 10.4-8.2 5.8-6.8 9-8 19.7-7 8.4.7 13.7 2.6 13.7 4.8 0 1.7-15.1 15.1-21.9 19.5-11.3 7.2-23.9 11.9-37.1 13.7-2.5.3-6.5 1.2-9 2s-7.4 2.3-11 3.4c-3.6 1.1-8.7 2.3-11.5 2.7-13.3 1.8-51.8 17.7-68.8 28.4-3.4 2.1-8.4 5.3-11.1 7-6 3.7-8.9 4.2-9.4 1.6-.6-2.8 6.4-15.2 13.2-23.5 3.4-4.1 7.9-9.7 10-12.5 5.1-6.7 14.4-17.4 22.7-26.1 3.6-3.9 7.8-8.9 9.3-11.3 1.5-2.3 5.4-8.4 8.7-13.5 17.2-26.3 32.4-66.8 35.4-94.2.4-3.3 1.8-11.5 3.1-18.2 1.7-8.6 2.4-15.7 2.4-23.6 0-6.3.3-11.7.7-12 1.1-1.2 14.6-.6 18.3.7zM473 201c0 .5-.4 1-1 1-.5 0-1-.5-1-1 0-.6.5-1 1-1 .6 0 1 .4 1 1zm352.8 7c.7 9-.5 12.8-5 16-5.1 3.7-6.1 3.7-9.5 0-1.5-1.7-4.3-4.1-6.3-5.2-4.1-2.6-5-3.7-4.3-5.4 1.2-3.2 17.6-10.6 22.3-10.1 2.2.2 2.5.7 2.8 4.7zM735 226.9c-3.9 3.9-7.6 7.1-8.2 7.1-1.5 0 0-5.3 2-6.8 2.4-1.9 12.6-7.9 13-7.7.1.2-2.9 3.5-6.8 7.4zM426.5 222c.3.5.1 1-.4 1-.6 0-1.1-.5-1.1-1 0-.6.2-1 .4-1 .3 0 .8.4 1.1 1zm3.5 3.6c0 .8-.5 1.2-1 .9-.6-.4-.8-1.1-.5-1.6.9-1.4 1.5-1.1 1.5.7zm9.9 17.7c14 14.5 20.5 21.4 25.5 27.7 1.6 1.9 6 6.9 9.8 11.1 7.8 8.5 15 18.7 14.5 20.3-.5 1.4-11.4.9-14.7-.7-1.3-.7-3.9-3.2-5.8-5.7-7-9.3-19-13.6-42.1-15.1-7.9-.5-16.4-1.6-18.8-2.4-6.6-2.2-10.1-2-10.5.7-.4 2.9 2.6 13.9 5.3 19.8 7.2 15.1 22.8 31.5 35.6 37.2 4.2 1.9 5.1 1.9 10.2.8 7.6-1.8 8.7-2.4 15.3-8.7 9.8-9.3 18.2-11.3 31.7-7.8 17.2 4.4 20.8 9.6 28.7 41 8.3 32.9 11.1 40.3 29.4 76 23 45.1 24.4 49.5 24.3 73.5 0 9.7-.6 18.4-1.3 21-.7 2.5-1.8 9.1-2.6 14.8-1.1 8.3-2.3 12.6-6.3 22-2.8 6.4-7.1 17.3-9.7 24.2-5 13.3-13.6 31.6-15.9 33.9-1.3 1.3-2.1 1.2-6.7-.7-10.8-4.4-26.8-8.4-40.8-10.3-4.7-.6-11.4-1.7-15-2.4-3.6-.8-12.2-2.3-19.2-3.4-6.9-1.1-14-2.7-15.6-3.5-1.7-.9-5.8-4.7-9.2-8.6-6.1-6.7-9-8.4-10.6-5.8-.5.7-.8 4.9-.8 9.3l-.1 8-4.5-.3c-13.1-.8-37.9-12.3-48.3-22.3-4.3-4.1-4.7-5-3.8-6.8.7-1.2 2.2-2.1 3.4-2.1 10.2-.3 34.3-3.4 41.3-5.5 6-1.7 14.4-7.8 14.4-10.4 0-5.2 3.4-10.9 10.9-18.6 15.7-16 27.4-34.4 37.6-59.5 5.3-13.2 6.9-16 9.1-16 .9 0 4.4 2.8 7.8 6.3 9.6 9.8 12.8 21 9 32-1.8 5.3-2 5.4-13.2 6-8.8.5-11.5 2.5-13.1 9.6-.7 2.8-1 16.5-.8 36l.2 31.3 4.2-.5c5.5-.6 13.8-7 27.4-21 7.2-7.4 11.1-10.8 12.4-10.6 1 .2 4.4 4.2 7.7 8.9 3.2 4.7 7.6 10.5 9.8 12.9 3.8 4 4.2 4.2 6.3 2.9 5.7-3.7 15.1-21 16.7-30.8.6-3.6 2-9.1 3.1-12.3 1.9-5.8 2.5-15.6 1.2-23.2-.9-5.3-8.2-12.5-14.4-14.2-7.7-2-13.2-7.2-35.4-33.7-9.8-11.7-19.5-20.8-28.5-26.8-9.2-6-13.3-10-25.6-24.8-4.3-5.2-12-14-17-19.5-18.5-20.4-19.4-24-4.6-20.4 8.6 2 10.9 3.8 11.7 8.8 1.1 6.4 3.6 12 6.6 14.5 3.7 3.2 17.4 8.4 26.9 10.3 8.6 1.8 20.8 7.2 30.5 13.8 3.7 2.5 7.4 4.5 8.1 4.5 1.7 0 1.8-9 .5-24-.8-8.8-1.3-10.2-6-18.9-6.7-12.4-10.6-17-19.7-23-8.6-5.8-15.3-8.1-23.6-8.1-5.9 0-9.1 1.1-16.3 5.5-6.6 4.1-15.9 3.4-39-2.8-16-4.3-32.9-16.5-48.3-34.9-14.8-17.8-24.1-34.9-28.6-52.9-2.2-9-2.2-27.4 0-28.7 1.5-.8 4.9-.5 15 1.6 4.6 1 10.9 4.5 11.7 6.6.3.7 2.6 2.3 5.2 3.6 5.1 2.5 7 2.3 19-1.2 11.5-3.4 16.4-6.4 24.7-15 4.3-4.4 8.2-7.7 8.8-7.3.6.4 7.3 7.1 14.9 14.8zM825.1 254c-.3 14.1-.7 16.4-3.6 25.5-4 12.4-8.6 23.1-13.6 31.4-2.2 3.4-3.9 6.5-3.9 6.8 0 .2-1.6 3-3.6 6.1-4.7 7.2-15.7 18.7-20.9 21.7-10.8 6.3-34.7 11.8-61.5 14-8.3.7-15.9 3-23.3 6.9-5.6 3-7.3 3.2-8.1 1-1.1-2.9-.6-30.8.9-47.6 1.3-14.9 1.8-17.4 4.4-22.5 1.6-3.2 4-6.8 5.3-8 5.3-4.9 21-8.1 25.2-5 1 .7 3.3 4.7 5.1 9 1.8 4.2 4.3 9 5.4 10.6 4.5 6.3 13.1 7.6 26.2 4.1 4.1-1.1 11.2-3 15.9-4.1 4.7-1.1 9-2.4 9.5-2.9.6-.4 4.3-1.3 8.4-1.9 4.1-.7 7.8-1.4 8.2-1.7 2.7-1.6-14.6-21.2-21.6-24.5-6.1-2.9-24.2-6.2-29.7-5.5-2.6.4-8.2 1.8-12.4 3.2-8.8 2.9-15.1 2.9-16.8.1-.9-1.6-.5-2.4 2.7-5.2 2.1-1.8 5.3-4 7-4.9 1.8-.8 5.7-3.7 8.7-6.4 7.9-7 14-11.2 16.3-11.2 1.2 0 5.1 3.2 9.6 7.9 7.1 7.5 8 8.1 15.1 10.2 10.4 3 20.9 2.8 28.4-.5 6.4-2.8 9.1-6.4 10.1-13.5.8-5.6 3-9.3 5.3-8.9 1.5.3 1.7 1.9 1.3 15.8zM197 249.1c.6 1.1 1.7 3.9 2.5 6.2.7 2.3 3.9 10.3 7 17.7 3.1 7.4 6.9 16.9 8.5 21 1.6 4.1 4 10.2 5.5 13.4l2.6 5.9-5.4 8.1c-9.6 14.4-15.2 29.8-18.2 50.1-.9 5.5-2 11.3-2.5 12.9-.6 1.6-1 4.4-1 6.1 0 5.5-1.7 5.9-11.7 3.1-4.8-1.4-10.6-2.8-12.8-3.1-7.1-1.2-10.5-2.6-10.5-4.4 0-.9 2.8-4.3 6.1-7.6 9.2-8.9 17.2-20.2 23.9-33.7 5.6-11.1 6-12.4 6-18.7 0-7.2-1.8-13.6-8.5-29.6-3.3-7.8-3.8-10-3.8-17 0-8.3 2.7-19 7.3-28.3 2.3-4.7 3.4-5.2 5-2.1zm796.2 7c11.7 12.7 14.4 17.5 15.8 27.9 1.5 10.7.5 27.7-1.7 30.2-.9 1-2.6 1.8-3.7 1.8-2.9 0-12.1 4.4-16.6 8-9.5 7.5-9.3 19.7.6 32.7 18.1 23.6 19.3 25.7 20.1 35.2l.6 6.8-2.9 1c-1.6.6-9.2 2.1-16.8 3.4-16.6 2.8-16 3.2-17-10.6-.9-11.6-3.5-21.4-8.7-32.2-2.1-4.6-3.9-9-3.9-9.9 0-.9 1.8-5.7 4.1-10.8 4.8-10.5 6.6-16.4 10.7-33.6 5.1-21.5 7.5-36.1 7.7-46.6.2-9.7.7-12.4 2.5-12.4.5 0 4.6 4.1 9.2 9.1zm-384.5-2.3c9.4 7.9 17.3 15.8 17.3 17.5 0 .8-2.4 3.1-5.4 5.1-5.2 3.4-5.9 3.6-13.8 3.6-12.5 0-15.2 1.1-23.4 9.4-5.4 5.5-7.7 8.8-9.9 14.1-2.7 6.6-2.9 7.8-2.8 20.5 0 12.6.2 14 3.2 21.8 4.8 12.8 7.6 18.2 12.8 24.7 5.5 6.8 11.4 10.6 15.7 10.3 2.8-.3 3.1-.7 4.7-7.1 2.5-9.8 5.6-13.9 18.7-24.4 8.3-6.7 14.7-26 12.7-38.9-.6-4.2-1.5-5.6-6.7-10.6-4.8-4.7-5.9-6.2-5.4-8 .8-3.2 6.9-6.8 12.5-7.5 4.3-.5 5.1-.2 8.5 2.7 4.5 4 9.6 12.5 12.4 21 5.1 14.9 5.4 42.2.7 51.2-1.4 2.6-2.5 5.3-2.5 6 0 1.2-1.5 5.5-6.8 18.8-4 10.2-17.6 32.2-22.8 37-2.5 2.3-7.1 5.4-10.2 6.8-4.8 2.3-7.1 2.7-14.7 2.7-8.9 0-9.1-.1-17.8-4.8-4.9-2.7-10.4-6.2-12.3-7.9-3.4-3-12.2-17.7-16.3-27.3-1.2-2.8-2.6-5.7-3.1-6.6-.4-.9-2.1-6.3-3.7-12-2.6-9.5-2.8-11.8-2.8-27.4 0-15.3.2-17.7 2.4-24 1.3-3.9 3.9-9.6 5.7-12.8 1.9-3.2 3.4-6.1 3.4-6.4 0-2.1 15.2-24.2 21.9-31.8 1.4-1.7 5.2-6.5 8.5-10.8 8.8-11.6 10.6-12.1 19.3-4.9zm-288.1 13.7c1.1 9.6 9.4 30.2 11.5 28.9.8-.4.9-.3.5.4-.8 1.3 3 3.6 4.4 2.7.6-.4.9-.3.8.2-.1.4.7 2.6 1.8 4.8 1.5 2.8 2 5.3 1.6 8.1-.5 4.8 3 11.4 6.1 11.4.9 0 1.7.4 1.7.9 0 2.2 10.8 15.2 17.7 21.4 4.3 3.9 10.1 9.1 12.8 11.6 2.8 2.5 9.3 8.3 14.5 12.8 9.4 8 35 33.4 35 34.6 0 .4 1.6 2.8 3.6 5.4 2.1 2.8 3.1 4.9 2.5 5.1-2 .7-16.4-2.8-25.6-6.3-4.9-1.8-10.1-3.6-11.5-4-1.4-.3-4.1-1.2-6-2-4-1.5-18.6-7.1-27.5-10.5-8.3-3.2-24.8-10.9-25.5-11.9-.3-.4-3.7-2.8-7.6-5.2-11.9-7.4-15.4-9.9-15.4-10.9 0-.6 4.6-1 11.3-1.1 13.8 0 25.3-1.1 26.7-2.5 1-1-6.3-21.1-11-30.4-1.1-2.1-1.7-4-1.3-4.3.3-.3-.9-2.3-2.5-4.3-1.7-2.1-2.8-4.2-2.5-4.7.4-.6 0-.8-.8-.5-1 .4-2.9-1.4-5.7-5.6-5.9-8.7-12.2-14.9-19.6-19-3.5-2-6.6-4.2-6.9-5.1-1.4-3.4 7.8-22.1 12.2-24.8 3.3-2 3.9-1.3 4.7 4.8zM167.5 279c.8 1.6 1.5 3.8 1.5 5 0 1.1.5 2 1.1 2 .8 0 1 2 .6 6.6-.4 6-1 7.3-6.5 15.4-9.5 14-11 17.8-12.1 30.5-.6 6-1 17.4-1 25.2-.1 19.7-.2 20-11.6 20.4-9.4.3-10.2.1-10.9-2.6-.6-2.5 1.5-18 3.9-27.5.7-3 1.6-7.8 2-10.5.4-2.8 2-8.2 3.7-12 1.6-3.9 3.6-10.2 4.4-14 1.8-8.7 12.2-30 17.9-36.6 2.2-2.6 4.3-4.8 4.7-4.8.4-.1 1.4 1.2 2.3 2.9zm158.9 1.5c.3.8.1 1.5-.4 1.5-.6 0-1-.7-1-1.5s.2-1.5.4-1.5.6.7 1 1.5zm4.3.7c-.3.8-.6.5-.6-.6-.1-1.1.2-1.7.5-1.3.3.3.4 1.2.1 1.9zm699.9 17c.9 1.8 4.5 7.2 7.9 11.9 11.1 15.6 20.5 37.1 23.5 53.9.6 3.6 1.8 9.7 2.6 13.7.7 4 1.4 12.4 1.4 18.7 0 14.8.1 14.8-14.9 11.2-5.9-1.4-11.9-2.6-13.2-2.6-1.4 0-3.3-.6-4.3-1.3-1.7-1.3-1.6-2 1.8-15.8 7.5-30.4 7.7-32.3 4.2-45-2.9-10.6-3.3-11.3-9.7-18.6-8.4-9.5-8.1-8.7-6.1-18.4 2.5-12 3.8-13.5 6.8-7.7zM271.2 319c-.3 2-1 11.7-1.2 15.4 0 1.3-9.9-9.5-11.7-12.8-.8-1.5-1.1-3.2-.6-3.6 1-1.1 5.7-1.8 10.3-1.6 3.1.1 3.5.4 3.2 2.6zm-28.3 17.2c14.5 15.7 26.1 34.3 26.1 41.9 0 .9-1.6 4-3.6 6.9-2 2.9-4.3 7.2-5.1 9.7-1.3 3.9-1.3 5.1.1 11.4 2.7 12 10.5 26.5 20.2 37.4 4.7 5.2 9 9.6 9.7 9.7.7.1 3.9.2 7.1.2l6 .1 1.2 4c.7 2.2 2.6 8.7 4.4 14.5 4.7 15.7 11.3 25.6 18.6 28 3.4 1.2 18.1-.1 21.1-1.9 1.1-.5 2.7-.5 4.2.1 3.5 1.2 10.1 7.8 10.1 9.9 0 1.1-3.2 3.2-9.7 6.4-5.4 2.6-12.4 6.3-15.5 8.2-3.7 2.3-6.3 3.3-7.6 2.9-3.8-1.2-30.8-37.2-41.7-55.6-5.7-9.6-17.2-23.3-28.1-33.5-9.9-9.2-13.3-11.8-31.4-24-14.3-9.6-15-10.8-15-25.4 0-14.8 2.4-25 8.6-37 4.4-8.5 12.5-19.1 14.5-19.1.5 0 3.1 2.4 5.8 5.2zm62.1 6.9c0 .6-.4.7-1 .4-.5-.3-1-1.1-1-1.6 0-.6.5-.7 1-.4.6.3 1 1.1 1 1.6zM289 372c1.2 2.2-.5 3.1-3.6 1.9-2.1-.7-4.8-6.2-3.7-7.3.8-.8 6.1 3.1 7.3 5.4zm656.5 1.5c2.5 9 1.7 26.9-1.4 33.9-1.1 2.7-2.1 5.5-2.1 6.4 0 2.7-5 8.3-27.5 30.9-12.2 12.3-26.8 27.8-32.3 34.5-17.2 20.8-29.4 36-31.9 39.7-1.3 2-5 6.9-8.1 11-16.5 21.5-21.3 27.1-23.6 27.7-2.4.6-10-3.6-21.1-11.7-2.2-1.6-5.6-3.8-7.6-4.9-5.5-2.9-9.9-6.9-9.3-8.5.3-.8 2.2-1.9 4.2-2.6 2.1-.7 9.3-4 16.2-7.5l12.5-6.2 12.5.5 12.5.5 4-2.9c3.3-2.5 4.4-4.3 6.7-10.9 1.5-4.3 3.4-10.8 4.3-14.4 1.6-7 3.8-30.8 2.9-32.2-1.5-2.4-18.7 1.2-29.7 6.1-7.5 3.4-13.4 4-14.3 1.6-.7-1.7 1.2-12.6 3.1-18.2.7-2.1 1.1-4.1.9-4.4-1.5-2.4-20.6-1.4-31.4 1.7-17.6 5.1-24 8.6-28.9 16.1-3.6 5.3-3.7 7.1-1.4 15.8 2.1 8 1.2 9.5-5.7 9.5-7.5 0-12.4-5.2-13.7-14.7-.7-5.3 2.6-11.3 8.9-16.5 5.5-4.4 29-18.1 38.8-22.5 4.1-1.9 8.9-4 10.5-4.8 12.7-6 36.2-13.3 60.5-18.9 13.2-3 15.8-3.2 16.6-1.1.4.8-.1 5.4-1 10.3-1.9 10.2-1.4 14.2 3.8 29.9 3.5 10.9 5.8 15.3 8 15.3.7 0 3-2.8 5-6.3 2-3.4 6.2-9.4 9.3-13.2 11.5-14.3 16.3-23.9 16.3-32.8 0-2 .4-3.7.9-3.9.6-.2-.2-3.2-1.6-6.7l-2.5-6.3 2.8-2.4c1.6-1.3 6.3-4.9 10.4-7.9 4.1-3 10.4-7.7 14-10.4 3.6-2.8 6.8-5 7.1-5.1.4 0 1.5 2.9 2.4 6.5zm-184-3.7c1.1.2 2.2.6 2.5.8.7.8-12.2 12.4-13.1 11.8-2.3-1.4-.7-6 3.3-10.1 2.3-2.4 4.4-3.9 4.7-3.5.4.4 1.5.9 2.6 1zm-228.8 5.4c-.3.8-.6.5-.6-.6-.1-1.1.2-1.7.5-1.3.3.3.4 1.2.1 1.9zm-220.9 14.7c4.9 2.4 23.4 11.3 28.2 13.5 3 1.4 10.9 4.5 17.5 7 6.6 2.4 14.5 5.5 17.5 6.9 5.5 2.5 12.5 5 36.5 13.4 7.2 2.5 14.8 5.3 17 6.2 2.2 1 8.4 3.5 13.8 5.6 12 4.7 18.1 8.4 20.7 12.7 2.7 4.5 2.5 6.5-1.3 12.3-4.3 6.7-9.9 9.5-18.8 9.5-6.7 0-16.5-2.3-18.6-4.3-.7-.7-1.4-4-1.7-7.3-.5-7.3-2.3-11-6.7-14.4-8.1-6.1-11.2-7.3-33.4-13-8.2-2.1-19-5.2-23.9-6.9-5.9-2.1-9.3-2.8-10-2.1-.6.6-.6 2.7.2 6.1 1.6 6.9 1.6 7.2-1.3 6.7-1.3-.3-2.2-.1-1.9.3.3.5 1.1.9 1.8.9 1.1 0 3.6 7.2 3.6 10.5 0 3.9-8.7-.4-19-9.5-4.1-3.6-11-10-15.4-14.2l-7.9-7.7.6-6.4c.3-3.7 0-10.3-.8-15.8-.8-5.2-1.5-9.7-1.5-10.2 0-1 2.6-.9 4.8.2zm781.6 6.2c2.1 4.1 2.6 6.4 2.6 12.4 0 8.5-.6 10.5-3 10.5-3 0-3.8-2.2-4.7-13.8-1.2-15.3.4-18.1 5.1-9.1zm-924.4 13c11 1.8 13.7 2.6 22.3 7 10.6 5.4 14.1 7.7 28.4 18.6 13.2 10.1 17.3 13.8 17.3 15.5 0 1.3-2.1 1.6-11.7 2-7.7.3-14.8 1.3-20.3 2.8-13.7 3.6-16.3 2.9-48.7-13.1-10.8-5.3-19.1-10.1-20.3-11.6-2.4-3.1-3.9-8-4.7-15.4-.4-4.5-.2-5.8 1.3-7.3 1.6-1.6 2.9-1.8 12.8-1.1 6.1.3 16.7 1.5 23.6 2.6zm505.4 3.1c.3 1.3.8 5.3 1.1 9 .4 4.2 1.3 7.6 2.4 9l1.8 2.2 6.4-2.8c3.5-1.6 7.8-3.7 9.5-4.7 7-4.2 24.3-8.7 28-7.2 2.1.8 1.7 5.9-1.1 18.4-3.1 13.4-5.9 21-9 24.8-2.5 2.9-13 9.3-30 18.1-8.2 4.2-11.4 5.3-18 6.1-18.7 2.3-23.8 5.1-31.9 17.4-6.9 10.6-9.2 16.3-10.6 26.4-1.4 10.4.2 24.3 3.2 27.3 2.4 2.4 4.2 1.5 11.8-6.1 7.5-7.3 19.7-15.8 21-14.5.5.5 1.8 5.2 2.9 10.4 2.2 10.6 4.4 17.6 7.4 23.5 5.5 10.9 16.2 23.3 19.1 22.2 3.8-1.5 18.9-28.3 22.1-39.1 2.9-10.2 2.4-15.3-2.4-23.9-5.1-9.2-5.2-12.1-.7-23 8.5-20.4 12-24 14.9-15.2.9 2.5 2.1 8.2 2.7 12.5.5 4.4 1.5 11.5 2 15.7.6 4.3 1 13.1 1 19.6 0 10-.3 12.4-2.1 16-1.2 2.3-2.7 4.9-3.5 5.7-.7.9-2 3.5-2.8 5.8-1.3 3.7-1.3 4.8 0 9.3 2.5 8.5 9.8 17.2 21.4 25.6 7.9 5.8 16 13.3 16 14.9 0 1.7-1.7 2.6-12.6 6.2-17.4 5.8-25.3 7.2-41.2 7.2-8.1 0-20.8-.7-28.2-1.5-18.8-2-27.3-5.1-38.5-14.2-8-6.5-13.5-14.7-18.6-27.3-3.9-10-4.2-11.2-5-25.5-.5-8.3-1.2-16.9-1.5-19.2-.4-2.5 0-6.7 1-10.6.9-3.5 1.6-8.1 1.6-10.3 0-2.1 1.4-8.9 3-14.9 1.7-6.1 3.9-14.2 5-18 4.1-15 14.9-32.3 41.3-66.5 2.3-3 5-6.7 5.9-8.2 2.1-3.4 4.6-3.6 5.2-.6zm-565.5 2.6c1.1 1.6 2.3 4.1 2.7 5.6.4 1.6 2.2 6.5 4.1 11 5.2 12.2 8.7 20.9 13.5 33.6 2.4 6.3 7.6 17.9 11.6 25.8 3.9 7.9 7.2 15.2 7.2 16.2 0 1.9-12.8 13-14.9 13-2 0-6.2-10.2-8.3-19.7-4.8-23-11-35.3-20.6-41.4-3.8-2.4-5.7-2.9-10.6-2.9-3.3 0-7.4.5-9.2 1.2-5.4 1.9-7.8.1-9.9-7.5-1.9-7-1.2-13.3 2.1-20.3 3.2-6.7 12.9-13.5 22.9-15.9 7.1-1.8 7.2-1.8 9.4 1.3zm922.1 9.4c6.3 1.6 13.5 3.4 16 3.9 6.3 1.3 15.4 6 15.8 8.2.4 2.2-5.5 14.9-9.7 21.1-5.4 7.8-19.1 15.5-43.1 24.1-8 2.9-18 5.5-21.2 5.5-1.3 0-5.6-2-9.6-4.5-16.3-10.1-22.7-11.9-43.7-12-15.5 0-16-.1-16.3-2.1-.4-2.9 3.4-7.2 14.5-16.2 13.8-11.3 18.9-14.7 26.6-17.7 14-5.4 24.4-4.7 37.1 2.6 4.7 2.7 8.9 4.9 9.2 4.9 1 0-.4-5.6-3.2-12.6-1.4-3.6-2.3-7.2-2-8 .8-2.2 15.6-.8 29.6 2.8zm62.8 27.2c1.8 1.7 4.8 6.1 6.7 9.8 8.6 17.3 4 32-12.9 40.5-3.8 1.9-8.7 4.7-10.8 6.1-3.3 2.2-4.4 2.4-7.5 1.6-5.8-1.4-6-2.8-2.1-14 1.9-5.4 5-14.6 6.8-20.4 5-15.7 8.8-25.4 10.7-26.8 2.3-1.6 5.1-.7 9.1 3.2zM58 453.4c0 .7 1.8 4.9 4 9.5 2.2 4.5 4 8.8 4 9.6 0 .7-1.6 3.9-3.5 7.1-4.2 6.9-4.6 12.5-1.5 20.8 5.2 13.7 25.6 28.2 47.9 33.9 9.3 2.4 9.1 4.9-.4 9.6-7.6 3.7-22.7 6.6-28.9 5.6-11.1-1.9-21-8.3-27.7-18.1-5.7-8.1-7.9-16-8.6-29.9-.5-10.2-.2-13.8 1.7-23 2.4-11.8 6.1-22.9 8.6-25.6 1.7-1.9 4.4-1.5 4.4.5zm94.4-.5c1.9 1.1 6.3 3.1 9.8 4.5 9.8 3.9 17.8 8.6 17.8 10.3 0 .9-1.9 3.8-4.2 6.4-2.4 2.7-5.8 6.7-7.7 8.9-2.3 2.8-4.1 4-5.5 3.8-2.1-.3-7.7-9.3-13.7-21.8-1.7-3.6-3.6-7.5-4.1-8.7-2.4-5 1.5-6.8 7.6-3.4zm84.2 14.1c4.4 0 14.5 7 19 13.2 5.8 7.8 9.2 19.4 10 33.6.5 8.2.3 13-.5 15.3-.6 1.9-1.9 6.7-2.7 10.7-1.6 7.9-4.2 14.2-5.7 14.2-.5 0-.4.6.2 1.4 1.3 1.5.4 2.8-7.4 11.1-2.6 2.7-6.3 7-8.3 9.4-4.5 5.4-11.9 11.1-14.3 11.1-1.2 0-3.2-2-5.2-5.3-15-23.4-14.9-23.1-12.1-32.7 2.8-9.7 2.8-10.7.5-11.5-1.3-.4-4.3.1-7 1.1-2.8 1-5.9 1.4-7.4 1-2.9-.7-12.9-12.4-18.3-21.3-5-8.4-4.7-10.1 4.2-21.3 12-15 13.2-16.2 16.1-15.8 1.4.2 3.5 1.5 4.6 3l2 2.7-2.6 3.8c-6.1 8.8-6.9 15.2-3 22.2 1 1.7 7.9 9.3 15.3 16.9 7.4 7.5 16 17 19 20.9 6.7 8.8 8.9 9.4 12.1 3 1.2-2.3 2.5-4.4 2.9-4.7 1.3-.8 5-13.9 4.4-15.4-.3-.8.2-3.8 1-6.7 2.4-8 2-15.5-1.3-25.4-3-9-7.6-16.7-11.7-19.8-1.4-1.1-5-2-9-2.4l-6.6-.6.4-4.8c.1-2.6 0-4.5-.4-4.2-.5.2-.8 2.2-.8 4.4 0 4.7-1.5 5-5.4 1.1-2.1-2.3-2.4-3.1-1.4-4 2.2-1.8 12.2-5 14.3-4.6 1.1.2 3.4.4 5.1.4zM380 486c5.8 2.7 11.3 5 12.2 5 .9 0 2 .4 2.3 1 1.7 2.8 13.6.2 19.8-4.2 1.4-1.1 2.7-.9 7.7.9 4.1 1.5 6 1.8 6.1 1 0-.9.2-.8.6 0 .2.7 1.7 1.3 3.1 1.3 1.9 0 2.3.3 1.4.9-1 .6-.9 1 .7 1.4 1.2.3 1.9.1 1.5-.4-.3-.5.9-.9 2.6-.9 1.8 0 2.9.4 2.5 1-.3.5.3 1 1.4 1 3.6 0 2.3 1.4-3.7 4.1-11.4 5.3-19.3 6.6-30.6 4.9-4.5-.6-9.5-1.5-11.3-2-1.7-.4-3.5-.4-4 .1-1 1-9.7-1.8-19.3-6.3-7.4-3.4-10-5.4-10-7.6 0-1.8 3.9-6.2 5.4-6.2.6 0 5.8 2.2 11.6 5zm668.3-1.4c1 1-.4 3.4-1.7 2.7-.6-.3-.3.2.6 1.3 1.6 1.8 1.2 2.6-6.4 16.4-9.6 17.4-17.4 28.9-20.5 30.3-1.7.7-2.8.6-4.5-.5-3.3-2.2-10.1-14.8-13.9-25.7l-3.3-9.4 2.3-1.8c1.3-1.1 3-1.9 3.7-1.9.8 0 6.1-1.5 11.7-3.4 20.7-6.9 23.9-7.8 25.7-7.3 1 .2 2.4.1 3.1-.4 1.7-1 2.4-1.1 3.2-.3zm-98.8 2.8c8.4 2.2 15.5 6.4 15.5 9.2 0 .8-2.4 3.2-5.2 5.5l-5.3 4.1-6.8-.6c-6-.5-7.5-.3-11.5 1.6-14.6 7.3-23 35.1-17.4 57.5 3.1 12.3 8.4 20.3 12.4 18.8.7-.3 2.4-2.1 3.7-4.1 4.3-6.2 13.9-14.1 22.8-18.6 9.7-4.9 13.5-8.8 15.9-16.3.9-2.7 2.1-5.6 2.7-6.3 1.7-2.2.8-9.8-1.9-14.7-1.3-2.6-2.4-5.2-2.4-5.9 0-1 5.8-4.6 7.4-4.6.2 0 2.1 3.3 4.1 7.2 2.1 4 4.6 8.5 5.6 10 1.4 2 1.6 2.8.7 3.1-.9.4-.8.6.3.6 2.4.1 5.3 3.9 9.3 11.8 2.4 4.9 3.3 7.8 2.8 9.1-.4 1-5.6 6.2-11.7 11.5-6 5.4-12.1 10.8-13.5 12.2-1.4 1.4-4.2 2.8-6.3 3.2-4.2.6-4.8 1.1-7.7 6-3.5 5.9-22.7 17.3-29.3 17.3-4.8 0-16.9-13-22.9-24.5-8.1-15.7-9.2-20.9-9.3-43.5 0-22.4-.4-21.1 11.2-35.1 6.6-8.1 11.3-12.1 16.5-14.4 4.2-1.8 13.8-1.9 20.3-.1zM586 488c0 .5-.4 1-1 1-.5 0-1-.5-1-1 0-.6.5-1 1-1 .6 0 1 .4 1 1zm536.5 21.3c-.1 13.7-.3 16-2.8 23.7-3.5 11-7.5 17.9-14.5 24.9-10 10-17.7 13.2-31.6 13.3-9.9.1-21.5-3.4-30.4-9.1-10.8-7-11.3-8.4-5.8-14.2 1.4-1.5 2.2-2.9 1.9-3.3-.3-.3 1.9-3.8 4.9-7.8 3-4 6.3-8.7 7.3-10.5 3.3-5.6 8.9-6.8 13-2.6 2 1.9 1.7 7.5-1 16.5-1.5 5.5-8.8 14.7-11 14-1.7-.6.1.8 5.6 4.4 6.2 3.9 10 4.9 17.2 4.1 12.3-1.4 20.8-5.9 27.2-14.7 2-2.8 4.6-5.5 5.6-6.1 1-.5 1.9-1.9 1.9-3s.9-3.7 2-5.8c2.7-5.4 3.6-15.7 2-24.1-1.4-7.6-.6-11.3 3.4-15.8 1.8-2 2.1-2.1 3.5-.7 1.3 1.3 1.6 4.3 1.6 16.8zm-599.6-10.6c1.7 2.1 3.1 4.5 3.1 5.5 0 2.5-7.3 7.2-9.9 6.3-1.7-.5-2.1-1.5-2.1-5.5 0-10.3 3.5-12.8 8.9-6.3zm251.8-1.2c4.1 2.9 12 3.8 20 2.5l7.4-1.3 2.7 2.7c3.2 3.2 2.5 4.8-3.4 8.3-7.9 4.7-11.1 6-17.8 7.8-6.6 1.8-7.1 1.8-13.9.1-6.9-1.8-17.1-7-21.4-10.9-3.2-2.8-3-5.5.5-6.3 7.5-1.6 14.6-3.5 15.1-3.9 1-1.1 8.8-.4 10.8 1zm-184.1 6.2c-.8.9-3.6-1.7-3.6-3.3 0-1 .7-.7 2.1.7 1.1 1.1 1.8 2.3 1.5 2.6zm97.5-.3c-1.3 3.3-2.6 3.4-2.9.2-.1-1.6.4-2.6 1.6-2.8 2.3-.6 2.4-.4 1.3 2.6zm-95.4 4.8c-.3.8-.6.5-.6-.6-.1-1.1.2-1.7.5-1.3.3.3.4 1.2.1 1.9zm-2.2 1.8c.3.5.1 1-.4 1-.6 0-1.1-.5-1.1-1 0-.6.2-1 .4-1 .3 0 .8.4 1.1 1zm-297.4 4.3c.6 1.2 2.7 4 4.5 6.3 1.8 2.3 4.9 6.8 6.9 10s4.7 7.4 6 9.3c1.4 1.9 2.5 4.4 2.5 5.7 0 3-5.4 6.2-12.5 7.4-7.7 1.2-9.1 1.7-15.8 4.7-6.9 3.2-8.6 2.4-6.3-2.8 2-4.3 6.5-24.6 7.2-32.4.3-3.3 1-7.5 1.6-9.2.8-2.8 1.2-3.1 2.9-2.3 1 .6 2.4 2 3 3.3zm586 16.8c.6 14.8 3.3 30.5 6.9 41.2 1.1 3.1 2 6.5 2 7.5 0 3.2 9.2 20.7 14.5 27.7 8.8 11.4 8.9 13 1.6 21-12.2 13.4-14.7 15.5-18.2 15.5-3.2 0-7.5-2.1-9.1-4.4-1.3-1.9 1.1-4.2 7.4-7 12.4-5.5 15.3-7.1 15.6-8.7.2-1-3.4-5.3-8.6-10.5-4.8-4.9-10.7-11.4-12.9-14.5-8.1-11-19.6-18.9-27.6-18.9-5.9 0-15.7-6.1-15.7-9.8 0-1.8 4.7-8.4 10.5-14.7 2.5-2.8 5.3-6.2 6.2-7.8 1-1.5 2.1-2.7 2.5-2.7.4 0 .8-.5.8-1 0-1 9.6-14 17.3-23.3 2.2-2.6 4.5-4.6 5.1-4.4.7.2 1.3 5.5 1.7 14.8zm-445-8.4c1.6 1.6.4 4.2-2.6 5.3-1.6.6-2.3 1.4-1.9 2.2.4.6.3.8-.4.4-.6-.3-1.5.1-2.1 1.1-.9 1.7-1.2 1.6-5.6-.5-5.9-2.9-17-3.9-25-2.2-3.3.6-9.7 3.1-14.3 5.5-8.6 4.6-22.1 15-24.9 19.1-.8 1.3-2.1 2.4-2.7 2.4-1.7 0-11.6-13.6-11.6-15.8 0-2.5 20.6-13.6 30.3-16.3 6-1.7 18.4-2.4 40.4-2.4 13.4 0 19.6.4 20.4 1.2zm-267.7 9.7c1.9 3 4.2 6.9 5.1 8.7 1.6 3 1.6 3.3 0 4.5-.9.7-4.3 1.5-7.6 1.9-4.5.5-7.3 1.6-11.4 4.4-6.5 4.3-9.7 8.3-13.7 17.1-4.8 10.5-6.3 11.4-14.3 8.5-9.4-3.4-23.7-9.3-24.6-10.2-1.5-1.5 1.9-3.9 9.1-6.3 3.5-1.2 7.8-2.9 9.5-3.7 4.2-2.2 15.7-11 24-18.3 3.9-3.5 9.2-8 11.8-10.1 5.9-4.7 7.1-4.3 12.1 3.5zm584.2 4.8c.8 1.3-3.4 4.7-5.8 4.8-2.2 0-3.6-6.4-1.8-8.5 1.1-1.3 1.6-1.2 4.1.6 1.6 1.1 3.1 2.5 3.5 3.1zM49.4 556.4c8 6.2 20.9 13.9 33.2 19.7 5.8 2.7 10.8 4.9 11.1 4.9.3 0 6.2 2.4 13.2 5.4 11.4 5 15.2 6.2 28.9 9.6 3.6.9 4.8 1.9 7.3 6 1.7 2.7 4.9 6.5 7.2 8.5l4.2 3.5-2.3 1.9c-2.2 1.9-13.1 6.3-18.5 7.5-3.3.8-5.7-.4-11.4-5.4-5.9-5.1-24.7-16.4-30.7-18.4-7.1-2.4-26.8-2.5-36.5-.1-6.4 1.5-7.5 1.5-8.8.3-1.2-1.3-1.3-2.4-.2-7.5 1.8-8.7-.6-20.8-5.1-26-2.8-3.2-3.1-4.1-2.6-7.7.7-4.3 2.1-6.6 4-6.6.7 0 3.8 2 7 4.4zm277.2 2.4c1 .7 10.4 16.6 10.4 17.6 0 .2 2.3 4.3 5.1 9 5.9 9.9 5.9 11.8.1 16.4-4.4 3.5-29.6 12.1-40.2 13.7-2.5.4-7.2 1.5-10.5 2.5s-8.2 2.5-11 3.3c-2.7.8-9.6 3.1-15.3 5.1-7.3 2.6-10.8 3.4-12 2.7-2.3-1.2-13.2-20.8-13.2-23.7 0-1.5 2-4 6.2-7.6 8.7-7.5 14.6-13.5 16.8-17 2.3-3.9 10.1-12.8 11.2-12.8.4 0 .8.7.8 1.5s-.4 1.5-1 1.5c-.5 0-.7.6-.5 1.3.6 1.4-2.2 12.7-5.5 22.8-1.2 3.8-3.7 8.3-5.6 10.5-5.7 6.6-4.5 8.1 4.8 5.8 23.7-5.8 46.3-17.6 53-27.6 3.2-4.7 3.5-8.9 1.3-14.6-1.2-3-1.3-4.5-.5-6.8 1.5-3.8 3.4-5.1 5.6-3.6zm460.6 3.4c2.4 1.2 6.2 3.7 8.6 5.5 6 4.9 5.7 6.9-2.9 17.8-3.9 5-7.5 9.8-8 10.7-.5 1-1.9 1.8-2.9 1.8-1.8 0-2-.7-2-6.2 0-3.4-.5-11.2-1.1-17.4-.7-6.2-.9-11.9-.6-12.8.9-2.2 3.9-2 8.9.6zm237.2 13.7c8.3 5.7 19.2 11 29.4 14.2 3.9 1.3 7.2 2.8 7.2 3.3 0 1.6-16.4 10.6-20.2 11.2-2.7.4-4.7-.4-11.3-4.5-4.3-2.8-8.8-5.3-10-5.7-5.7-1.5-18.5-6.9-18.3-7.6.7-2.1 13.5-15.8 14.7-15.8.8 0 4.6 2.2 8.5 4.9zm100.5 1.7c2.5 2.9 2.7 5.3 1.3 13.9-.6 3.3-.8 8.1-.5 10.6.7 5.9-1.7 8.4-9.6 9.8-19.1 3.6-34.8 7.3-39.4 9.4-5.9 2.7-13.1 8-26.5 19.5-10 8.6-12.9 10-17.4 8.1-3.1-1.3-3.7-3.9-1.3-5.9.8-.7 3.8-5.2 6.5-10.1 5.5-9.6 11.2-15.2 19.2-18.8 2.6-1.2 12.1-7.1 21.1-13.1 16.4-10.9 18.5-12.2 30.8-19 3.7-2 7.7-4.4 9-5.4 3.2-2.2 4.2-2 6.8 1zM349.4 588c-.6.5-2.4-2.1-2.4-3.4 0-.6.6-.1 1.4 1 .8 1 1.2 2.1 1 2.4zm477 .2c.8 1.3 2 5.9 2.6 10.4.6 4.4 2.2 11.6 3.5 16 4.5 14.5 4.1 14.9-13.9 14.6-7.2-.2-15.8-.6-19.1-1-8.8-1-8.6-2.4 2.7-17.2 5.1-6.8 11-14.6 13.1-17.4 6-8.1 8.5-9.3 11.1-5.4zm-618.8 4.9c.8 1.7 1.2 3.5.7 3.9-.7.6-9.2 3-10.7 3-1.4 0-.4-3.6 2-6.7 3.2-4.2 5.9-4.2 8-.2zm770.1 29.2c5.3 9.7 6.8 13.3 5.7 13.5-4 .9-25.4-8.1-29.4-12.3-2.1-2.3-2.1-2.4-.4-3.9 6-5 14.1-10.5 15.4-10.5.9 0 4.4 5.3 8.7 13.2zM189 611.4c0 .3-.4.8-1 1.1-.5.3-1 .1-1-.4 0-.6.5-1.1 1-1.1.6 0 1 .2 1 .4zm-6.5 3.6c-.3.5-1 1-1.6 1-.5 0-.9-.5-.9-1 0-.6.7-1 1.6-1 .8 0 1.2.4.9 1zM90 619.7c9.5 3.4 22 13.8 22 18.2 0 2.8-4.7 6.1-8.5 6.1-1.9 0-6.7-1.9-12.1-4.8-18.3-9.9-18.9-9.8-18.2 3.1.4 7.5 1.1 10.6 3.7 16.4 3.3 7.6 3.9 10.9 1.9 11.5-.7.3-4.6-.4-8.7-1.4-4.2-1-12.3-2.2-18.1-2.7-15.3-1.3-25-4.8-25-9 0-5.8 14.5-26.6 22.8-32.6 9.5-6.9 28.1-9.1 40.2-4.8zm129.2-1c2 2.3 10.8 21.5 10.8 23.6 0 1.8-6.2 7.5-9.7 8.8-4.6 1.7-9.7.9-18.6-3.1-13.5-6-19.7-11.7-19.7-18.1 0-2.9 2-4.2 9-5.8 7-1.6 23.4-6.1 23.9-6.7.9-.9 2.9-.3 4.3 1.3zm99.1 18.6c1 2.1 2.4 4 3.3 4.4.8.3 5.4-1.2 10.1-3.3 8.2-3.7 9.4-3.9 18.4-3.9 11.2 0 13.4 1 12.6 6-.7 4.2-6.8 13.8-12.6 19.8-5.5 5.8-11.4 8.7-17.5 8.7-4.9 0-6.6-1.6-6.6-6.3 0-4.1-5.2-13-8.9-15.1-3.3-1.9-3.6-1.9-14.1-.1-11.3 1.8-24.1 1.7-24.8-.3-.2-.6-1.1-.8-2-.5-2 .8 3.2-3.6 6.5-5.4 1.3-.7 6.9-2.9 12.5-4.8 7.7-2.6 11.7-3.4 15.8-3.2 5.3.2 5.6.3 7.3 4zm629.7 5c11.8 5.8 31.4 12.7 35.7 12.7 3.6 0 12.8 3.4 14.7 5.5 1.2 1.3 6.6 3.7 13.1 5.9 6.1 2.1 11.3 4 11.8 4.5 1.4 1.4-11.9 24.5-13.6 23.4-.6-.4-.8 0-.4 1.1.8 2.1-.9 4.9-9.4 15.2-7.8 9.4-13.1 13.8-18.7 15.8-4.3 1.5-6.2.8-6.2-2.5 0-1-.4-2.1-1-2.4-1.7-1.1-1.1-4.4 1.7-9.3 3.9-6.9 12.3-23.9 12.3-25.1 0-.5.9-3 2-5.6 1.3-3 2.4-4.4 3.1-3.9.7.4.9.3.5-.4-.3-.6-.2-2.1.3-3.4.5-1.3.7-3.6.4-5.1l-.5-2.7h-12.3c-12.2 0-14.9.3-31.5 4.1-4.7 1-9.1 1.9-9.8 1.9-.8 0-3.9-1.9-7-4.3s-8.5-6.2-11.8-8.5c-3.4-2.2-6.4-4.8-6.8-5.7-.9-2.4 1.6-6.4 7.8-13 6.8-7.2 7-7.2 25.6 1.8zm182.3-2.9c8.5 3.3 16 8.4 20.2 13.8 2.6 3.4 3.4 5.6 3.9 10.8l.7 6.5-5.3 1.8c-2.9 1-8 2.5-11.3 3.3-3.3.8-9.6 2.6-14 3.9-4.4 1.3-11.3 2.7-15.2 3.1-6.5.6-7.3.5-7.3-1 0-1 .5-2.6 1.1-3.7.6-1.1 1-8.3 1.1-16.4.1-20.5-1.1-21.4-15.3-11-9.6 7-20.6 13.5-23.1 13.5-.9 0-2.1-.6-2.7-1.4-1.3-1.6-1.1-1.9 6-8.1 5.4-4.8 9.4-7.4 20.2-13.2l10.2-5.4 12 .5c9.8.3 13.3.9 18.8 3zm-966.5-.2c.5.7 1.5 5.1 2.1 9.8 1.3 10 9 33.3 13.9 42.4 1.7 3.1 1.8 4.2.9 5.7-2 3.1-4.3 2.2-8.3-3.4-2.1-2.8-4.3-5.5-4.9-5.9-.7-.4-2.8-3.5-4.9-7-2-3.5-4.1-7-4.6-7.8-.5-.8-2.3-4.2-4-7.5-1.8-3.3-4.7-8.3-6.7-11.1-4-5.9-4.1-9.2-.3-11 8.9-4.1 11.1-4.9 14.6-5.3.6 0 1.6.5 2.2 1.1zm279.8 2.3c10.7 3 13.6 4.7 20.4 11.4 9.3 9.3 20.4 27.4 28.6 46.6 2.1 4.9 5.7 11.9 8 15.5 10.2 15.9 11.6 22 5 22-6 0-22.3-9.6-38.7-22.7-7.4-5.9-9.6-6.5-10.5-2.8-2.5 10 11.7 32.9 33.2 53.4 5.5 5.2 13 12.4 16.8 16 6.6 6.3 18 20.2 20.4 24.8 2.2 4.2 5.2 19.5 5.2 26.6 0 6.8-3 20.8-5 23.2-1.6 2-9.8 19.1-10.9 23-.7 2.2-1.6 4.9-2.1 6-.5 1.1-1.4 3.8-2 6-.6 2.2-1.5 4.9-2 6-.5 1.1-1.6 4.9-2.5 8.5-1 3.6-2.8 10.6-4.1 15.5-1.2 5-2.5 10.6-2.8 12.5-1.7 13.7-6.3 26.4-12.8 35.7-2.1 3-4.4 6.6-5.2 8.1-2.1 4-12.1 14-20.1 20.1-8.5 6.4-22.2 13.1-33 16.1-19.6 5.4-24.9 7.6-43.5 18.6-8.4 5-7.7 4.9-29 2.4-10.5-1.3-28.7-.7-33.7 1.1-4.3 1.4-4.3 4.3-.2 6.4 1.6.9 6.7 2.5 11.2 3.5 21.9 5 23.7 5.7 23.7 9.1 0 1.4-1.8 2.4-8.1 4.3l-8.1 2.5-3.7-2c-2-1.1-5.8-3.3-8.6-4.9-5.5-3.2-12.1-5-20.7-5.6-4.4-.3-7.3.2-12.5 2.2-16.8 6.4-18 6.7-23.4 4.9-5.3-1.8-21.8-12.1-24.6-15.5-1-1.2-4-3.5-6.8-5.2-5.8-3.6-9.5-6.8-9.5-8 0-.5 1.9-3 4.3-5.6 8.6-9.4 12.5-16.2 16.8-28.7 2.1-6.2 2.4-8.8 2.4-22.5v-15.5l-4.3-8.4c-5.2-10.4-12.9-19.9-23.2-28.8-9.4-8.3-17.1-12.5-31.4-17.4-6-2.1-11.2-4.1-11.7-4.6-.4-.4-1.6-5.7-2.5-11.6-1.5-9.7-1.5-11-.1-12.4 1.3-1.4 1.8-.9 4.9 4.3 7.3 12.5 31.9 25.7 50.6 27.1 6.9.6 7.2.5 7.2-1.6 0-1.2-1.1-4.3-2.4-6.9-1.3-2.6-3.8-9.9-5.5-16.2-5.8-21.3-6.6-23-12.3-28.4-5.8-5.3-11.8-8.5-15.9-8.6-4.5 0-6.7-2.9-9.1-11.8-1.9-7.5-2-8.4-.6-9.9 1.5-1.4 2.1-1.3 7 1.3 4.5 2.5 5.7 3.8 8.1 8.7 3.5 7.1 9.8 11.7 16.1 11.7 8.7 0 31-10.7 39.7-19 5.4-5.1 6-6.1 5.7-9.1l-.3-3.4h-9.1c-9.1 0-9.1 0-15.4-4.3-3.8-2.7-8.3-4.8-11.4-5.4-4.9-1.1-5.6-.9-13.1 2.5-4.4 1.9-9.2 3.9-10.7 4.2-6.4 1.6-15.6-6.9-20.2-18.7-2.2-5.5-2.5-7.2-1.5-8.4 1-1.2.9-1.3-.5-.8-1.1.4-1.6.1-1.6-1.4 0-2.3 3.6-4 5.2-2.4.6.6 1.6.8 2.3.6 2.5-1 10.3 3.8 14.6 8.8 7.3 8.7 14.2 9.7 24.6 3.8 6.2-3.5 15-14.2 17.7-21.3 1-2.7 2.8-6 4.1-7.5 1.9-2.2 2.5-2.4 3.8-1.4.8.7 1.8 2.5 2.1 4 2.6 10.9 3.7 13.2 6 13.2 1.2 0 3.3-1.2 4.7-2.6 4-4.3 12.8-10.6 23.9-17.3 13.3-7.9 15-9.4 17.8-16 2.7-6.6 2.8-10.7.2-14.6-2.3-3.4-2.6-7.4-.7-9.7.6-.8 5.2-4.6 10-8.3 9.9-7.5 11.7-7.5 11.7-.2 0 3.1-.9 5.1-3.9 9.1-6.9 9-10.1 17.4-10.1 26.4 0 4.1.8 6.9 3.6 12.5 6 11.9 9.5 15.8 21.4 24.2 8 5.6 8.9 6 15.1 6.3 5.4.3 6.7.1 7.2-1.2.8-2-.8-6.4-3.3-9.1-2.2-2.4-5-12.7-5-18.7 0-2.4 1.3-10.6 2.9-18.2 3.8-18.2 2.9-21.6-7.4-28.1-9.1-5.9-10.1-8.8-6.4-19.8 2.8-8.5 11.8-21.5 21.4-31.2 10.3-10.4 21.8-16.3 38-19.5 6.3-1.2 21.3 0 30.1 2.5zM851 653.9c2.5.5 7.3 1.4 10.8 2 7.9 1.5 17.3 4.9 19 6.9.8 1.1 1.2 5.5 1.2 13.6.1 15.8 1.4 25.4 4.6 33.4 2.7 6.8 9.1 17.2 10.5 17.2.5 0 3 1.9 5.7 4.2 2.7 2.4 6.3 5.5 8.1 7 3.6 3 4.1 5.8 1.1 5.8-1.2 0-6.7-1.6-12.4-3.5s-11.1-3.5-11.9-3.5c-5.6 0-1 36.5 6.3 51 5.7 11.3 21.3 16.8 28.5 10 3.1-2.9 10.7-3.5 11.3-.8.4 2.1-2.8 5.1-9.7 9-4.5 2.6-6.2 3-11 2.8-16.9-.7-20.4-.4-26.6 2.6-4 1.9-8.7 5.5-14 10.8-10.7 10.6-16.2 14.8-22.8 17.5-9.7 4-8.7 8.3 3 12.9 14.9 5.8 20.7 7.3 31.2 8.2 8.2.8 10.9 1.4 11.9 2.7 2.9 3.8-1.1 21-8.4 37.1-1.9 4.1-3.4 8.3-3.4 9.3 0 3 3.6 4.2 10.9 3.5 9.6-1 13.1-2.1 26.6-8.7 9.6-4.6 13.8-7.4 19.9-13 4.5-4 8.5-6.9 9.4-6.7 1.4.3 1.7 1.9 2 9.5.3 11.4-.2 12.3-11.7 20.5-18.9 13.4-31.6 26-41.7 41.3-5.9 8.9-8.4 15.5-9.1 24.3-.7 9.1 1.2 27.4 3.3 31.4 2.1 4.1 1.7 9.5-1.3 17.7l-2.7 7.4 2.4 1.9c2.6 2.1 5 2.1 17.1-.3l6.7-1.3 6.3 5.1c3.5 2.8 7.2 6 8.2 7.1 1.7 1.9 1.7 2.1-.9 5.2-4.1 4.8-15.9 13.9-21.2 16.3-3.8 1.7-7.1 2.2-17.7 2.5-21.3.6-25 .5-27.3-.7-3.3-1.8-3.8-7-1.3-15.9 2-7.7 5.1-28 5.1-34 0-2.7-.4-3.2-2.5-3.2-1.9 0-3.1 1.2-5.8 5.8-4.3 7.4-11.1 21.6-12.7 26.7-1.9 5.9-4.7 11.2-6.4 11.8-1.6.6-10.1-4.4-10.8-6.5-.3-.7.8-2.8 2.3-4.6 5.1-5.9 4.3-6.6-8.6-7.6-4.3-.3-12.6-2.3-21.5-5.2-19.7-6.3-20.5-6.7-23.2-11.4-2.6-4.6-8.4-7.9-15.8-9.1-5.5-.9-34.8 1.8-58.2 5.3-7.1 1-8.1.9-13.7-1.2-8.1-3-14.4-9.9-20.4-22.2-9.3-19.2-12.8-27.3-13.7-31.7-2.8-14.1-5-26.2-5.6-30.6-.7-5.2-3.3-15.2-5.8-22.1-.8-2.3-1.9-9.2-2.5-15.5-1.4-16-3.9-35.6-5.2-40.9-.6-2.5-1.7-8.1-2.5-12.5-.7-4.4-1.8-10-2.3-12.5-3-13.5-.4-21.2 11-33.5 2.1-2.2 4.7-6 6-8.3 2-4 2.1-5.3 1.6-15-.8-15.2-2.5-19.2-10.3-25.3-6.8-5.4-8.4-8.5-8.4-16.5 0-8.2 3.9-16.3 18.2-37.6 12.2-18.1 21.7-25.2 39.9-30 7.1-1.8 11.2-2.2 25.9-2.2 16.8 0 17.8.1 25 2.8 14.5 5.4 23.8 10.7 30 16.9 6.2 6.1 11 13.6 12.8 19.7.6 1.9 1.8 5.7 2.6 8.4l1.6 4.8-7 7c-9 9.1-11.4 13.8-10 20.4.5 2.7 1.7 7.1 2.6 9.9 1.2 3.7 1.6 8.3 1.6 17.5-.1 13 .9 17 4.4 17 3.3 0 11.9-5.5 18.8-12.1 6.5-6.1 8-8.2 11.7-16.7 3.9-8.8 4.4-10.6 4.7-19 .5-11.9-1-16-8.4-23.4-4.8-4.8-5.5-6-5.7-9.9-.2-3.4.2-4.4 1.5-4.7 1.7-.3 13 7.8 21.7 15.5l4.5 3.9-1.7 6c-2.3 8.2-2.2 14.1.4 18.4 1.2 1.9 8.3 9.6 15.8 17.1 7.5 7.5 15.3 15.5 17.3 17.8 2 2.4 4.2 4 4.8 3.6 2.1-1.3 5.9-10.3 8-19.1 2.1-8.6 2.1-9.1.5-17.9-5.4-29.4-12.6-37.8-31.1-36.1-6.5.6-7.2.5-9.3-1.8-4.2-4.4-2.6-6 6.4-6.7 10-.7 16.7-4 24.5-11.8 6.2-6.2 10-14.6 10.8-23.7l.4-5.2-9.8-.8c-13.5-1.1-24-.9-29.4.6-4.3 1.2-7.6 4-14 12-4.5 5.6-14.3 5.2-27.1-1.1-6.6-3.3-13.2-10-12.2-12.6 1.8-5.3 8.9-9.9 17.3-11.4 5.7-1 45-.2 51 1zm-717 3.7c0 .8-.4 1.2-1 .9-.5-.3-1-1-1-1.6 0-.5.5-.9 1-.9.6 0 1 .7 1 1.6zm-2.5 7.1c3.7 7.1 11.4 19.8 19.2 31.7 2.4 3.7 4.5 8 4.6 9.5.2 2.4 0 2.6-3.8 2.4-5.7-.4-15.3-4.5-20.2-8.8l-4.3-3.6v-9.7c-.1-8.8-.4-11.5-2.6-20.4-.8-3.6.3-7.8 2.1-7.8.8 0 3.1 3 5 6.7zm133-.5c3.2 8.1 10.8 19.9 16.1 25.1 3 2.9 5.4 5.9 5.4 6.8 0 .9-1.7 3.6-3.8 6-8 9.2-13.1 17.4-17.2 27.9-2.9 7.3-5 8.6-6.7 4-1.4-3.7-3.9-4.8-6.7-3-10.1 6.4-15.5 9.1-24.3 11.9-12.9 4.1-16.4 6.4-18.3 12.1-1.5 4.5-2.6 6-4.6 6-1.8 0-9.4-7-11-10.2-2.1-4.1-2.4-16.3-.4-18.1 1.5-1.3 9.5-4 16-5.2 1.9-.4 8.5-3.1 14.7-6.1 12.6-6.2 18.9-12 24.2-22.3 3.7-7.3 7.8-20.3 8.6-27.3 1.5-12.5 4.8-15.6 8-7.6zm-28.4 4.5c-2.6 5.1-4.9 7-9.5 7.9l-3.9.7.7-3.3c.8-4 0-3.3 6.6-6.3 7.7-3.6 8.4-3.4 6.1 1zm680.1 5.2c6.9 3.1 13.6 8.1 15.5 11.4.7 1.2 1.2 5.3 1.3 9v6.8l-3.5 1.5c-4.5 1.8-8 1.8-14.1-.3-6.3-2.1-9.9-4.8-11.9-8.9-1.8-3.8-2-13.1-.3-18.5.9-3.3 1.5-3.9 3.9-3.9 1.5 0 5.6 1.3 9.1 2.9zm135.9 16.4c-.2 5.3.2 9.8 1 12.1 1.3 3.6 1.3 3.7-3.1 8.1-2.7 2.7-6.4 5.2-9.9 6.5-3.1 1.2-6.8 2.8-8.3 3.6-1.6.9-2.8 1.1-2.8.6 0-.5-1.3-.7-3-.4-1.6.2-2.7.9-2.4 1.4.5.8-6.5.1-7.5-.8-.2-.2 1.6-2.9 4-5.9 2.4-3.1 6.2-8.2 8.4-11.3 2.2-3.2 7.5-10.2 11.9-15.5 7.5-9.3 8-9.7 10-8.3 1.9 1.2 2.1 2.1 1.7 9.9zM332 685.4c-.1 2.3-7 10.4-11.4 13.4-9.6 6.5-15 2.9-6.3-4.2 2.4-2 5.2-5.1 6.2-6.9 2.7-5.1 11.6-6.8 11.5-2.3zM42.9 697.7c16.8 16.7 16.9 17 12.7 25.8-1.3 2.7-2.7 5.8-3 6.8-1.2 3.9-3.8 3.2-9.3-2.7-6.7-7.2-12.7-19.5-14.9-30.9-1.7-8.4-1.5-11.7.6-11.7.6 0 6.9 5.7 13.9 12.7zM888 693c0 3.7-1.3 3.9-2.8.5-1.9-4.1-1.6-5.8.8-4.5 1.3.7 2 2.1 2 4zm-656.3 2.3c.8 0 .9.6.3 1.7-1.1 2-4 4.6-4 3.5 0-.4-.6-.2-1.4.4-2.6 2.2-13 5.1-18.3 5.1-4.4 0-5.3-.3-5.3-1.8 0-1 1.2-2.5 2.8-3.4 1.5-.9 3.8-2.8 5.2-4.3 2.4-2.6 2.6-2.6 11-1.9 4.7.4 9 .7 9.7.7zM116 701c0 2.3-1.7 2.9-5.7 1.8-2.2-.6-3.3-1.5-3.3-2.7 0-2.2 2.5-4.5 4-3.6.5.3 1 0 1-.7.1-2 4 3.1 4 5.2zm1044.8 4c.4 11-1 17.6-6.1 27.5-5.1 9.9-15.2 20.9-18.8 20.3-1.8-.2-2.5-1.3-3.5-5.8-2.4-10-2-11.8 4.1-19.5 6.2-8 18-25.4 19.7-29.1.7-1.4 1.8-2.3 2.7-2.2 1.3.3 1.7 2.1 1.9 8.8zM185 697.9c0 .6-.4 1.3-1 1.6-.5.3-1-.1-1-.9 0-.9.5-1.6 1-1.6.6 0 1 .4 1 .9zm759.5 20.4c2.8 1.3 6.3 2.7 7.8 3.1 3.5.8 5.6 4.8 3.7 7.1-2.8 3.3-19.4.9-29.8-4.4-3.4-1.7-4.3-2.7-4-4.4.3-1.9 1.1-2.3 5.8-2.8 9.9-1 11.4-.9 16.5 1.4zm-832.5-.4c4.3.6 4.4.7 2.3 1.9-1.3.7-2.3 1-2.3.7 0-.3-.9.4-2 1.5-2.4 2.4-3.2 2.5-6 .2-1.4-1.1-1.9-2.3-1.5-3.5.8-1.8 2.4-2 9.5-.8zm-30.6 7.7c2.6 1 1.9 5.6-1.9 12.8-1.9 3.7-3.5 7.4-3.5 8.1 0 2.3-4 4.6-6.2 3.4-2.6-1.4-2.3-6.5 1-14.7 4-10 5.7-11.5 10.6-9.6zm80 1.4c11.9 1.2 13.1 2.3 12.1 11-3 28.9-2 48.5 3.5 67 1 3.6 2.6 8.8 3.5 11.7 1.7 6 4.5 23.8 5.2 33.3.4 6 .2 6.7-2.5 10l-2.9 3.4-1.6-4.9c-.8-2.8-2-8.8-2.7-13.5-1.2-9.2-6.6-24.9-10.9-31.5-3-4.6-15.8-21.2-20.8-26.8-1.8-2-3.3-4.4-3.3-5.3 0-1 2-3.9 4.5-6.5 4.7-5 5.5-7.8 3-9.9-1.3-1.1-3.1-1.1-9.9 0-10.2 1.6-20 1-22.3-1.3-1.6-1.6-1.5-2.1 1.6-8.4 3.1-6.2 3.3-7.2 2.8-13.8-.3-4-.2-7.6.1-8.2 1.2-1.8 10.8-5.5 16.4-6.3 7.6-1.1 14-1.1 24.2 0zm17.6 9.1c0 .5-.4.9-1 .9-.5 0-1-.7-1-1.6 0-.8.5-1.2 1-.9.6.3 1 1 1 1.6zm898.2-.2c13.5.9 13.8.9 18.5 4.4 2.6 1.9 6.7 4.4 9.1 5.6l4.2 2.1v6.8c0 6.1-.3 7.1-2.7 9.4-3.1 2.9-11 4.8-20.3 4.8-3.1 0-8.3.7-11.5 1.5-3.3.9-9.5 1.9-13.7 2.2-9.6.7-10.1.1-5.8-9.3 4-9 3.7-9.7-4.3-8.9-5.1.6-8 .2-14.3-1.6-5.3-1.5-10.7-2.3-16.5-2.3-8 0-9.1.2-17.3 4.2-4.8 2.3-9.8 4.2-11.1 4.2-2.4 0-7.5-5.1-7.5-7.5 0-.7.7-2 1.5-2.8 2.5-2.5 22.4-8.5 38.5-11.6 3-.6 6.4-1.3 7.5-1.5 3.7-.7 31.8-.5 45.7.3zm-156.7 9.6c2.2 1.4 3.5 2.5 2.8 2.5-1.8 0-8.3-3.3-8.3-4.2 0-1.3 1.2-.9 5.5 1.7zm30.2 3.1c-.3.3-1.2.4-1.9.1-.8-.3-.5-.6.6-.6 1.1-.1 1.7.2 1.3.5zm17 0c-.3.3-1.2.4-1.9.1-.8-.3-.5-.6.6-.6 1.1-.1 1.7.2 1.3.5zm144.3 5c0 2.1-.4 3.3-1 2.9-.5-.3-1-2.2-1-4.1 0-2.1.4-3.3 1-2.9.6.3 1 2.2 1 4.1zm-155 1.8c3.5 1.6 3.7 5.4.5 12.5-3.3 7.2-8.3 12.4-11.6 11.9-2.2-.3-2.4-.8-2.9-8.3-.4-6-1.1-9-2.9-11.8-3.6-5.9-2.6-6.8 6.6-6.1 4.3.4 8.9 1.2 10.3 1.8zm24.7 20.4c1.1 2.6 2.8 6.5 3.8 8.7 1.1 2.8 3 4.9 6.1 6.9 6.6 4.1 6.7 6.5.8 12.9-7.8 8.4-21.1 26.3-25 33.5-6 11.1-9.2 15.2-11.8 15.2-4.7 0-4.8-6-.2-20 1.9-5.8 5.1-15.9 7-22.5 5.4-18.4 11.5-36.6 12.7-38.1 2.1-2.6 4.4-1.5 6.6 3.4zm-901 4.9c3 3.6 3.3 3.7 5.5 2.4 6.2-3.8 14.8-3 26.8 2.5 4.1 1.9 7.7 3.8 8 4.2.3.4 2.4 2 4.6 3.5 11.7 7.9 18.2 17 24.7 34.7 8.6 23.3 10.9 34.4 10.5 51.5l-.3 13-4 .3c-2.1.2-6.4-.4-9.5-1.3-13.3-3.9-19.6-5.9-21-6.6-1.4-.7-2.7-1.3-11.2-5.5-1.8-.8-4-1.9-4.8-2.5-.8-.5-2.5-1.3-3.7-1.8-1.1-.6-2.4-1.5-2.8-2.1-.3-.6-2.8-2.1-5.5-3.5-5.5-2.8-10.6-8.3-16-17.5-9.4-15.8-13.9-33.5-8.5-33.5 2.3 0 3.6 2.4 6.5 12 1.2 3.8 3.6 9.2 5.5 12 6.8 10.2 13 14.7 30.4 22 3.6 1.5 8.5 4.2 10.9 6.1 5.1 3.9 6.3 4.1 8.4 1.6 1.8-1.9 7.2-15 8.2-19.7 1-4.4-.9-19.1-3.4-26.6-2.7-8.1-6.5-12.1-14.4-14.9-3.3-1.2-8.6-3.9-11.6-5.9l-5.5-3.6-12.7.2-12.6.3-3.6-4c-2.1-2.4-3.6-5-3.6-6.5 0-1.4-.6-4-1.4-5.9-3.6-8.6.3-11.7 6.1-4.9zm465.8-1.6c1.1 1.7-.1 2.1-1.5.4-.8-.9-.8-1.5-.2-1.5.6 0 1.4.5 1.7 1.1zm560.9 11.8c1.1 1.7-3.5 6-9 8.6-7.4 3.5-13.1 9.3-13.9 14.2-1 5.8-1 5.8-6 9.2-6.4 4.3-8.7 4.7-13.5 2.2-5-2.6-16.9-4-24.7-2.9-7.5 1.1-7.7 1.1-15.1.4-9.7-.9-13-4.8-8.4-9.9 2.8-3.2 23.4-12.4 34.7-15.5 11.6-3.3 30.6-5.8 52.2-7 1.7-.1 3.4.2 3.7.7zM540 792.6c0 .8-.4 1.2-1 .9-.5-.3-1-1-1-1.6 0-.5.5-.9 1-.9.6 0 1 .7 1 1.6zm400.6 25.9c1.3 3.4-4.9 20.2-8.7 23.7-5.8 5.5-11.8 2.3-12.1-6.4-.2-5.3 1-7.5 6.4-11.5 10.5-7.8 13.2-8.9 14.4-5.8zm63.4.5c0 .5-.7.7-1.5.4-.8-.4-1.5-.8-1.5-1 0-.2.7-.4 1.5-.4s1.5.4 1.5 1zm-463 5.4c0 .3-.4.8-1 1.1-.5.3-1 .1-1-.4 0-.6.5-1.1 1-1.1.6 0 1 .2 1 .4zm554.2 10.3c.9 1 2.3 3.3 3.3 5.2 1.4 2.8 1.5 3.7.4 5.8-.7 1.3-1.8 2.2-2.5 1.9-.9-.3-1.1.1-.7 1.2.3.9.3 1.4-.1 1-.5-.4-3 2-5.7 5.2-2.8 3.4-8.7 8.5-13.6 11.9-4.9 3.2-10.2 7.1-11.9 8.5-6.6 5.4-33.8 14-52.4 16.6-4.7.6-9.4 1.5-10.5 2-2.1.9-17.9 3.8-23 4.2-3 .3-3 .3-3.3-5.7-.7-12.2 4.2-34.9 9.4-44.5 3.9-6.9 4.9-8 7.4-8 4.4 0 5 1.6 5 13.4.1 6.1.5 12.9 1 15.1.4 2.2 1.4 6.8 2.1 10.2 1.1 5.3 1.6 6.3 3.3 6.3 3.6 0 9.5-2.5 12.4-5.2 5.6-5.3 7.8-6.1 12.5-5 12.3 3.1 21.7 2.1 30.7-3.4 10.3-6.2 13.9-11 18.9-25 2-5.3 2.9-6.5 7.8-9.7 6.3-4.2 7.4-4.4 9.5-2zm-37 8.8c.5 1.9.3 3.4-.5 4.5-.7.8-2.1 3.2-3 5.3-1.4 3-2.2 3.8-4 3.5-2.1-.3-2.2-.7-1.8-7.8.2-4.1.5-7.9.8-8.3.3-.4 2.1-.7 4.1-.5 3 .3 3.7.8 4.4 3.3zM611 844c0 .5-.4 1-1 1-.5 0-1-.5-1-1 0-.6.5-1 1-1 .6 0 1 .4 1 1zm290 2.4c0 .3-.4.8-1 1.1-.5.3-1 .1-1-.4 0-.6.5-1.1 1-1.1.6 0 1 .2 1 .4zm68.5 20.5c.3.5.1 1.2-.5 1.6-.5.3-1-.1-1-.9 0-1.8.6-2.1 1.5-.7zm-19.5 5.7c0 .8-.4 1.2-1 .9-.5-.3-1-1-1-1.6 0-.5.5-.9 1-.9.6 0 1 .7 1 1.6zm101.5 21.4c-.3.5-1.2 1-1.8 1-.7 0-.6-.4.3-1 1.9-1.2 2.3-1.2 1.5 0zM930 898c0 .5-.5 1-1.1 1-.5 0-.7-.5-.4-1 .3-.6.8-1 1.1-1 .2 0 .4.4.4 1zm-413.8 11.2c-1.5 1.5-2.4.6-1.6-1.6.5-1.2 1-1.4 1.7-.7.8.8.8 1.4-.1 2.3zm-364.8 1.4c8.9 1 10.1 2.7 11.1 14.9 1.4 17 1.7 15.9-6.2 23.6-3.9 3.8-7.6 6.9-8.3 6.9-.7 0-3-1.9-5.1-4.2-4.5-4.9-4.8-7.6-2.4-18.2 1.5-6.2 1.4-7.1-.5-14.6-1.1-4.5-1.8-8.6-1.4-9.1.3-.6 2-.8 3.8-.5 1.7.3 5.8.8 9 1.2zm46.6 8.9c7.9 2.8 16.1 7.1 15.3 7.9-.6.6 0 .8 3 1 1.7.1 5.7 4.4 5.7 6.2 0 1.7-3.9 3.4-8 3.4-1.6 0-5-.9-7.7-2.1-2.6-1.1-8.8-3.1-13.8-4.4l-9-2.3-.3-5.2c-.4-7.5.1-8.4 4.6-7.5 2 .3 6.6 1.7 10.2 3zm750.3 12c-.3.8-2.6 2.5-5.2 3.7-6.7 3.2-6.9 3.2-3.6.4 1.7-1.4 3.5-2.5 4-2.6.6 0 1.6-.9 2.3-2 1.4-2.3 3.5-1.8 2.5.5zm8 7.9c1.7 5.1-.6 9.8-7.1 14.7-13.9 10.6-15.3 11.3-22.2 11.7-9.2.6-10.3-.9-5.4-7.4 2-2.7 5.8-6.8 8.3-9.2 4.7-4.4 21.4-13.4 24-12.9.8.1 1.9 1.5 2.4 3.1zm-22.7 2.2c-1.1.8-2.9 1.4-4 1.4-1.6-.1-1.3-.5 1.4-2 3.9-2 5.6-1.7 2.6.6zm-9.6 6.9c-.7.8-1.8 1.5-2.4 1.5-.6 0-.2-.7.8-1.5 2.5-1.9 3.2-1.9 1.6 0zm-729.7 2.7c1.3 1 1.8 3.3 2.1 10.3.5 10.2 3.9 21.6 8.1 27.1 2.2 2.9 2.4 3.5 1 4-2.2.9-4.1-1-7.4-7.9-3.9-8-11.1-28.3-11.1-31.3 0-1.6.7-2.4 2.3-2.7 1.2-.2 2.5-.5 2.8-.6.3 0 1.3.5 2.2 1.1zm306.2 11c-.8 5.9-1 6.3-2.4 5.4-.6-.4-.7-1.5-.1-2.9.5-1.2 1.1-3.4 1.4-5 1.1-4.7 1.8-2.9 1.1 2.5zm-328.6 9.1c1.9 8.1 2 10.4 1.2 17.8-2 16.9-5.5 21-10.6 12.3-6.2-10.6-7.1-21.2-2.4-30 6.6-12.7 8.9-12.7 11.8-.1zm822.8-3.5c8.9 5.2 12.5 8.9 16.4 16.9 2.6 5.2 3.1 7.3 3.1 13.5 0 5.1-.6 8.7-2 11.9-2 4.6-4.2 7.1-4.2 4.9 0-.6-.5-.8-1.1-.4-.8.4-.7.9.2 1.5 1.1.7.8 1.4-1.4 3.5-1.6 1.4-3 2.4-3.1 2.3-1.4-1.7-5.3-11.9-4.5-11.9.5 0 .9.6.9 1.4 0 2.1 4 6.7 5.2 6 .7-.5.4-1.3-.9-2.4-1.1-.9-2.3-2.5-2.7-3.6-.7-2.1-6.7-6.7-7.5-5.7-.4.3 0 .8.7 1 .6.3 1.2.9 1.2 1.5 0 .5-1.4-.2-3.1-1.6-1.7-1.4-4.3-2.6-5.9-2.6-1.5 0-4.2-.3-5.9-.6-3.1-.6-3.1-.7-3.1-6.8-.1-3.3-.7-9.7-1.5-14.1-1.8-9.9-1.9-16.7-.2-18.4 2.5-2.6 11.6-.9 19.4 3.7zM494 969.9c-.5 1.1-1.5 2.3-2.2 2.7-.7.5-.8.2-.3-.7 2.1-3.7 4.4-5.5 2.5-2zm460.5 4.5c1.2 6.3-.1 32.7-1.8 38.1-2.1 6.5-7.8 15.9-9.8 16.3-2.4.4-8.4-4.1-8.7-6.7-.2-1.2.7-3.9 2.1-5.9 8.2-12.3 10.2-17.9 12.1-33.2.6-5.2 1.5-10.1 1.9-10.8 1.5-2.3 3.6-1.2 4.2 2.2zm3.7-.2c-.9.9-1.2.7-1.2-1.2s.3-2.1 1.2-1.2c.9.9.9 1.5 0 2.4zm-721.3 4.5c0 1.6-.4 3.7-.9 4.8-.6 1.5-.9.8-.9-2.8-.1-2.6.4-4.7.9-4.7.6 0 1 1.2.9 2.7zm722.8-.5c-.3.8-.6.5-.6-.6-.1-1.1.2-1.7.5-1.3.3.3.4 1.2.1 1.9zm-748.7 16c1.6 1.3 4.7 3.6 6.9 5.2 5.1 3.7 6.9 7.7 5.1 11.2-2.8 5.2-7.5 2.1-15.7-10.2-3.5-5.3-3.6-5.5-1.7-6.9 2.4-1.8 2.1-1.9 5.4.7zm747.5 9.4-1.5 2.9v-3.1c0-3.4.9-4.9 2.2-3.6.5.5.2 2.2-.7 3.8zm-765.7 4.8c2.9 4.1 5.2 7.9 5.2 8.5 0 2.5-3 .8-7.9-4.3-3.8-4.2-5.1-6.2-5.1-8.5 0-4.9 2.2-3.7 7.8 4.3zm768.8-1.7c-1 1-1.9-.5-1-1.8.6-1.1.8-1.1 1.2 0 .2.7.1 1.5-.2 1.8zm-4.6 6.6c0 .7-.9 1.8-2.1 2.5-1.7 1.1-2 1.1-1.3 0 2-3.6 3.4-4.6 3.4-2.5zm-444.2 20c.5 2.7-8.1 10.3-25.3 22.2-3.8 2.7-9.7 7.4-13 10.4-3.3 3.1-8.7 7.3-11.9 9.5-7 4.6-20.5 11.6-22.6 11.6-.8 0-3.4.7-5.8 1.5-2.4.9-9.9 1.7-17.5 2.1-11.2.5-14.6 1-22.7 3.7-9.1 3.1-10.1 3.2-25.5 3.1-14.4-.1-16.5-.3-20.8-2.3-2.7-1.2-5.1-2.9-5.4-3.7-.8-2.1 1.6-10 3.9-12.9 1-1.3 3.5-2.9 5.6-3.6 2-.6 8.4-3.2 14.2-5.7 11.1-4.8 23.1-7 38.3-7.2h6.7l2.8 4c2 2.9 3.4 3.9 5.4 4 2.3 0 3.6-1.2 8.1-8 9.1-13.5 19.6-23.3 30.4-28.2 6.9-3.1 25.7-4.6 42.2-3.3 10.9.9 12.6 1.2 12.9 2.8zm110.8-2.9c2.2.7 7.4 3.4 11.6 6 8.3 4.9 18.7 9.9 25.3 12.3 5.7 2 25.2 6.9 30.5 7.7 6.2.9 25 5.5 27.2 6.7 2.8 1.5 4.9 6.5 7.4 17.4 2.4 10.2 2.9 15.1 1.8 18-.4.8-2.7 3-5.3 4.7-8.9 6.1-12 10.6-15.1 22.1l-2 7.6 2.1 9c1.9 8.3 2.4 9.3 6.7 13.3 3.1 2.9 7.6 5.5 13.2 7.8 8.1 3.3 9.1 3.5 19.6 3.4 12.5-.2 15.3-1.2 25.7-9 7.1-5.4 10.4-5.6 21.2-1.3 5.4 2.2 8 2.8 8.7 2.1 1.4-1.4 0-3.5-8.7-13.1-7.5-8.2-7.4-7.9-2.8-18.2 2.3-5.2 3-5.9 5.4-5.9 4.4 0 27.3 12.3 27.7 14.8.7 4.2-8.6 17.9-18.5 27.4-4 3.8-17.4 12.8-19.1 12.8-.6 0-3.3 1.1-6 2.5-12.5 6.3-30.9 6-46.7-.6-2.7-1.2-8.6-4.3-13-6.9-4.4-2.6-9.7-5.2-11.6-5.9-2-.6-5.8-2.6-8.5-4.3-6.1-3.8-26.4-24-26.4-26.2 0-.9 1.5-3.9 3.4-6.6 7.6-11 6.8-26-1.7-34.8-5.2-5.5-14.6-11.7-23.7-15.7-8.3-3.6-11.4-4.7-25.5-8.4-8.4-2.2-13-4.4-14-6.8-2.6-6.4-2.3-23.4.5-30.8 1.1-2.9 4.5-3.3 10.6-1.1zm-56.9 18.3c3.9 5.2 10.5 18.2 10 19.7-.3.7-1.8 1.9-3.4 2.7-9.2 4.7-25.5 15.2-30.6 19.8-3.3 2.9-7.7 6-9.6 6.8-11.2 4.5-18.8 8.6-28.4 15-6.1 4.1-11.9 7.3-13.3 7.3-2.3 0-2.4-.2-2.4-7.9 0-15.3 6.6-25 26.7-39.1 4.8-3.5 11.7-8.6 15.3-11.5 5.6-4.6 13.5-8.9 27-14.8 5-2.2 5.5-2.1 8.7 2zm-247.8 19.4c3.9 1.4 3.9 2.6-.1 6.1-3.2 2.7-3.2 2.8-1.4 4.3 2.8 2.1 1.6 2.6-3 1.4-3.8-1.1-14.4-8.3-14.4-9.9 0-2.6 13.2-3.9 18.9-1.9zm479.1 1c14.1 5.4 30.4 14.2 35.8 19.3 3.1 2.9 3.3 3.4 2.6 8.1-.3 2.7-2 8.3-3.7 12.2-3.5 8.6-4.4 8.8-12.7 4.2-3-1.7-7.9-4.4-10.8-6-13.7-7.6-14.7-8.6-16.7-17.9-.7-3-2.1-8.7-3.2-12.5-1.1-3.9-1.8-7.6-1.6-8.3.7-1.8 4-1.5 10.3.9zm-31.5 7.3c7.1 7.5 4.7 13.2-5.9 14.3-4.1.4-6 .2-6.6-.6-.7-1.2 1-11.3 2.5-15.4 1.2-3 6.3-2.2 10 1.7zm-172.2 10.8c4.6 9.7 8.9 22 9.8 28.2 2 12.8-.3 28.4-4.9 33.8-3.3 3.8-18 1.3-18.3-3.2-.1-.8-.1-6.7.1-13 .2-14.2-1.6-19.8-9.5-29.5-3-3.7-5.5-7.3-5.5-8.1 0-3 16.9-11.3 23.1-11.4 3.2 0 3.9.4 5.2 3.2zm45.7 3.1c8.9 2.8 12.5 4.6 20.5 10 7.5 5.1 9.4 7.4 9.5 11.5 0 2.6-.6 3.6-3.2 5.2-4.7 2.8-8 2.5-13-1.3-2.4-1.8-6.9-4.7-10-6.5-8.4-4.8-18.8-16.2-18.8-20.6 0-1.6.5-1.8 3.8-1.2 2.1.3 7.1 1.6 11.2 2.9zm-344.1 5.8c8.6 4.3 10.1 6.1 10.1 12 0 3.9 2.3 4.7 6.8 2.3 2-1 3.9-1.9 4.3-1.9.4 0 1.4-.6 2.1-1.3.6-.6 1.5-1.2 1.9-1.2 1.8 0 17 9.3 16.7 10.2-.6 1.8-8.1 3.9-15.3 4.3-3.9.2-8.4.9-10 1.5-7.2 2.8-17.8-.9-27.2-9.4-4.6-4.2-4.7-4.3-4.7-10.8-.2-11.1 2.6-12.1 15.3-5.7zm166.4 14.7c.9.9 3 4.9 4.7 8.7 1.7 3.9 4.7 10.2 6.6 14.2 3.7 7.8 4.1 10.9 2 19.8-.8 3.3-1.7 9.6-2.1 14-1.1 14.4-.6 14-18 15.9-14.7 1.7-24.3 1.2-34.1-1.8-12.8-3.8-18.8-7.1-23.8-12.9-5-6-6.4-11.1-4.6-17.8 1.2-4.3 5.5-10.9 7.1-10.9.5 0 1.8 2.2 3 5 2.5 5.8 9.6 12.8 16.5 16.3 2.7 1.4 8.8 3.7 13.5 5.1 7 2.1 9.8 2.5 14.2 2 9.8-1.2 13.4-7.4 5.5-9.4-7.7-2-10.8-3.1-10.8-4 0-.5 1.1-3.1 2.5-5.8 1.7-3.5 2.5-6.6 2.5-10.4 0-4.8-.4-5.9-3.7-9.8-2-2.3-6.1-5.8-9.1-7.7-3-1.9-5-3.9-4.6-4.3 1.2-1.1 16.2-6.8 19.4-7.3 6.4-1.1 11.7-.7 13.3 1.1zm91.5.3c3.9 1.3 10.2 10.2 10.2 14.4-.1 4.5-2.8 7.3-7.7 8-3.9.4-4.4.2-7.2-3.2-2.6-3.2-3.1-4.6-3.1-9.1 0-5.1 2.1-11.2 3.9-11.2.4 0 2.2.5 3.9 1.1zm216.7.2c4.5 1.2 5 1.6 5.3 4.4.4 3.7-2.1 10.1-4.3 10.9-1.8.7-4.9-1.2-11.1-6.9-5.1-4.6-6.8-7.2-5.9-8.7.9-1.4 10.1-1.2 16 .3zm-244.6 4.1c1.5 1.8 5.1 14.7 5.1 18.3 0 5.8 3.5 9.4 15.3 16 2.6 1.4 4.8 3 4.9 3.5 0 .4.1 1.3.2 1.9.1 1.1-8.7 7.7-14.8 11-3.8 2-4.1 2-7.5.4-9.5-4.5-23.9-17.4-27.7-24.7-2.4-4.6-1-7.2 9.9-18.6 4.3-4.5 10.6-9 12.8-9.2.4 0 1.2.6 1.8 1.4zm210.8 5.1c3 5.4 10.6 13 17.3 17.3 5.3 3.3 8 5.8 8 7.3 0 .4-1.9 2.6-4.2 4.8-3.9 3.9-4.4 4.1-10.2 4.1-6.4 0-11.8-2.4-18.2-8-6.1-5.3-7.4-7.9-7.4-14.4s1.1-9 6-13.3c3.5-3.2 6.1-2.5 8.7 2.2zm-307.3 15.6c6.4 2.9 1.8 8.8-4.9 6.3-1.8-.7-3.8-5.1-2.9-6.5.7-1.2 4.8-1.1 7.8.2zm151.1 30.6c9.8 5.6 9.8 7.8.2 15.5-6.5 5.1-9.4 5-20.8-.7-10.9-5.5-11.3-7-2.9-12.7 11.4-7.9 13.1-8.1 23.5-2.1zm-80.9 1.9c3.8 1.9 7.3 3.9 7.8 4.4 1.7 1.6-3.6 3.1-10.2 2.8l-6.7-.3-.3-5.3c-.4-6.4.1-6.5 9.4-1.6zm118.5 18.5c9.5 9.7 10.1 11.9 3.4 13.7-7.9 2.1-17.3.9-25.3-3.2-3.2-1.7-3.3-1.8-1.8-3.9.9-1.2 2.8-4 4.2-6.2 7.3-11.1 9-11.1 19.5-.4zm-81.8 7c5 6.2 8.1 7.4 12.8 4.8 1.5-.7 2.4-.7 3.5.2 2 1.6 1.8 2.7-.7 3.4-1.1.4-1.8.9-1.5 1.3.4.3-1.1 1.2-3.1 1.9-4.6 1.7-20.3 2.9-21.2 1.7-.3-.5-2.4-1.5-4.6-2.3-4.5-1.5-13.5-6.9-13.5-8.1 0-.4 3.9-2.2 8.8-4 4.8-1.8 9.1-3.6 9.7-4.1 2.2-2.1 5.2-.5 9.8 5.2z"/><path d="M922 401c-.9.6-1 1-.3 1 .6 0 1.5-.5 1.8-1 .8-1.2.4-1.2-1.5 0zM328.4 417c0 6.3.1 8.9.3 5.7.2-3.1.2-8.3 0-11.5-.2-3.1-.3-.5-.3 5.8zM1089.5 393c.3.5.8 1 1.1 1 .2 0 .4-.5.4-1 0-.6-.5-1-1.1-1-.5 0-.7.4-.4 1zM432.1 525.6c0 1.1.3 1.4.6.6.3-.7.2-1.6-.1-1.9-.3-.4-.6.2-.5 1.3zM743.2 536.5c0 1.6.2 2.2.5 1.2.2-.9.2-2.3 0-3-.3-.6-.5.1-.5 1.8z"/></svg>